<?xml version="1.0" standalone="no"?>
<!DOCTYPE svg PUBLIC "-//W3C//DTD SVG 20010904//EN"
 "http://www.w3.org/TR/2001/REC-SVG-20010904/DTD/svg10.dtd">
<svg version="1.0" xmlns="http://www.w3.org/2000/svg"
 width="1125.000000pt" height="1125.000000pt" viewBox="0 0 1125.000000 1125.000000"
 preserveAspectRatio="xMidYMid meet">
<metadata>
Created by potrace 1.14, written by Peter Selinger 2001-2017
</metadata>
<g transform="translate(0.000000,1125.000000) scale(0.100000,-0.100000)"
fill="#000000" stroke="none">
<path d="M341 9315 c-46 -35 -142 -97 -213 -137 l-128 -73 0 -204 0 -204 57
-61 c31 -34 103 -109 159 -168 56 -59 105 -111 108 -117 7 -11 -255 111 -288
135 -29 20 -36 18 -35 -13 0 -24 8 -32 57 -55 112 -52 158 -75 212 -105 30
-17 152 -79 270 -138 237 -119 378 -197 575 -318 72 -44 142 -87 157 -96 92
-55 287 -176 310 -192 15 -11 29 -19 32 -19 3 0 29 -14 58 -31 29 -18 72 -43
96 -56 52 -29 112 -68 132 -86 8 -7 26 -18 40 -25 38 -19 165 -124 162 -134
-1 -4 4 -8 11 -8 15 0 57 -41 57 -55 0 -5 -8 -1 -18 8 -9 8 -29 27 -44 41 -16
14 -28 23 -28 20 0 -3 -12 7 -27 21 -15 14 -37 25 -49 25 -12 0 -24 7 -28 15
-3 8 -17 20 -31 25 -14 5 -25 14 -25 19 0 5 -15 16 -32 26 -65 33 -148 85
-166 102 -7 7 -18 13 -24 13 -6 0 -19 6 -27 14 -9 7 -45 29 -81 48 -127 68
-186 102 -305 176 -66 41 -149 93 -185 115 -110 68 -133 83 -180 113 -25 15
-47 29 -50 29 -3 1 -21 11 -40 23 -19 12 -41 22 -47 22 -7 0 -13 3 -13 8 0 4
-10 12 -23 18 -12 6 -85 43 -162 84 -77 40 -174 91 -215 112 -41 22 -82 43
-90 48 -8 5 -42 23 -75 39 -33 16 -91 45 -130 65 -38 20 -71 36 -73 36 -1 0
-1 -764 0 -1697 l3 -1697 51 -30 c73 -45 340 -211 554 -346 102 -65 192 -119
200 -122 48 -16 199 67 310 170 52 49 80 66 64 40 -4 -7 -3 -8 4 -4 6 4 9 13
5 22 -4 12 -1 13 22 4 33 -12 45 -13 25 0 -11 7 -9 11 13 19 16 6 39 11 52 11
13 0 31 10 39 22 14 19 16 20 16 4 0 -10 5 -15 13 -12 6 3 19 9 28 12 15 5 33
51 32 80 0 6 9 9 21 7 17 -4 24 3 36 34 8 21 18 49 21 63 6 24 7 24 8 3 2 -33
16 -28 32 10 7 17 25 43 41 57 28 25 49 85 52 147 0 17 4 34 8 38 4 4 4 -2 1
-14 -3 -12 -1 -21 6 -21 6 0 11 4 11 9 0 5 13 14 30 20 34 11 36 19 15 47 -17
22 -20 54 -5 54 6 0 14 -10 19 -22 l8 -23 7 23 c5 15 2 32 -9 49 -10 15 -12
22 -4 18 9 -6 10 -3 5 10 -5 15 -4 16 9 5 12 -10 13 -15 4 -20 -8 -6 -8 -9 2
-12 27 -9 44 4 62 45 14 33 20 39 27 27 7 -12 12 -12 22 -2 16 16 58 15 58 -1
0 -16 32 -47 48 -47 7 0 12 9 12 20 0 11 4 20 9 20 5 0 11 -9 14 -20 6 -23 29
-26 47 -5 8 10 9 27 4 57 -5 24 -7 50 -6 58 1 8 3 42 3 75 0 45 8 74 28 116
l28 56 -28 86 c-25 74 -27 90 -17 119 13 37 75 136 152 244 28 38 56 77 61 86
6 8 18 27 29 42 12 16 15 32 11 43 -5 10 -8 21 -7 25 1 4 -6 5 -16 1 -14 -5
-15 -3 -4 8 16 18 15 34 -2 20 -30 -25 -25 25 15 148 38 112 42 137 43 226 1
158 -45 260 -186 406 -97 101 -185 168 -353 267 -55 33 -127 76 -160 96 -33
20 -109 65 -170 100 -60 34 -182 106 -270 159 -88 54 -190 116 -227 138 -38
22 -68 45 -68 51 0 10 284 305 328 341 13 11 21 22 18 24 -3 3 -12 -2 -21 -11
-9 -9 -21 -16 -26 -16 -15 0 -10 17 7 24 8 3 12 10 9 16 -4 6 1 7 11 3 13 -5
16 -3 11 10 -4 11 14 35 61 80 112 107 134 126 148 120 9 -3 11 2 7 18 -5 18
-3 21 11 16 9 -4 15 -3 12 2 -3 4 6 19 19 31 14 13 25 21 25 17 0 -3 29 22 64
56 36 34 102 96 148 138 46 42 99 91 118 109 19 18 76 66 125 108 50 41 92 79
93 84 2 4 7 8 12 8 5 0 28 18 52 39 24 22 63 58 88 80 l45 41 -65 0 -66 0 -39
-52 c-46 -62 -424 -442 -432 -435 -2 3 -31 -20 -63 -51 -32 -31 -74 -68 -93
-82 -19 -14 -34 -28 -32 -31 2 -3 -8 -14 -22 -25 -15 -10 -34 -27 -44 -38 -10
-10 -22 -15 -28 -12 -6 4 -9 1 -7 -6 3 -7 -25 -38 -61 -68 -35 -30 -72 -62
-81 -70 -37 -35 -94 -72 -115 -76 -17 -3 -27 4 -41 26 -9 17 -15 30 -12 30 2
0 -10 15 -27 34 -71 75 -111 126 -124 157 -7 18 -29 52 -48 75 -19 23 -35 46
-35 52 0 5 -16 29 -35 54 -35 44 -36 48 -42 162 -6 114 -6 116 15 116 19 0 22
6 22 40 0 33 -3 40 -20 40 -17 0 -20 7 -20 40 0 33 -3 40 -20 40 -17 0 -20 7
-20 40 l0 40 -147 0 -148 -1 -84 -64z m-146 -565 c3 -5 1 -10 -4 -10 -6 0 -11
5 -11 10 0 6 2 10 4 10 3 0 8 -4 11 -10z m100 -99 c-6 -5 -25 10 -25 20 0 5 6
4 14 -3 8 -7 12 -15 11 -17z m40 -40 c-2 -2 -11 3 -19 12 -8 8 -12 17 -9 21 3
3 12 -2 19 -12 7 -9 11 -19 9 -21z m151 -77 c31 -27 63 -51 70 -54 12 -4 202
-178 245 -223 14 -16 21 -17 39 -7 17 9 25 9 34 0 8 -8 6 -9 -8 -4 -14 5 -17
4 -12 -5 9 -13 -48 -71 -69 -71 -14 0 -52 40 -39 40 5 1 -7 9 -26 20 -19 11
-31 19 -26 20 5 0 -3 9 -18 21 -14 11 -23 26 -19 32 3 7 2 9 -2 4 -10 -9 -126
103 -119 115 3 4 -3 5 -12 1 -13 -5 -16 -2 -11 9 3 9 -1 26 -10 38 -12 18 -17
19 -25 9 -8 -11 -9 -10 -4 4 3 11 -10 34 -39 67 -72 81 -54 76 51 -16z m-110
39 c-7 -7 -26 7 -26 19 0 6 6 6 15 -2 9 -7 13 -15 11 -17z m34 -28 c7 -9 8
-15 2 -15 -5 0 -12 7 -16 15 -3 8 -4 15 -2 15 2 0 9 -7 16 -15z m40 -40 c11
-13 10 -14 -4 -9 -9 3 -16 10 -16 15 0 13 6 11 20 -6z m744 -150 c-4 -8 -12
-15 -18 -15 -7 0 -22 -13 -34 -29 -12 -17 -42 -44 -68 -61 l-46 -32 17 32 c9
18 25 34 35 37 11 3 16 11 13 19 -3 9 2 14 15 14 12 0 34 11 49 25 32 28 45
32 37 10z m-235 -198 c-80 -73 -99 -86 -113 -81 -11 4 -6 14 21 37 20 18 40
31 45 30 4 -2 8 2 8 7 0 6 6 10 14 10 7 0 19 7 26 15 7 8 18 15 24 15 6 0 -5
-15 -25 -33z m1211 -1221 c0 -3 -4 -8 -10 -11 -5 -3 -10 -1 -10 4 0 6 5 11 10
11 6 0 10 -2 10 -4z m30 -30 c0 -2 -7 -7 -16 -10 -8 -3 -12 -2 -9 4 6 10 25
14 25 6z m40 -66 c0 -5 -8 -10 -17 -10 -15 0 -16 2 -3 10 19 12 20 12 20 0z
m12 -42 c-7 -7 -12 -8 -12 -2 0 14 12 26 19 19 2 -3 -1 -11 -7 -17z m-155 6
c-3 -3 -12 -4 -19 -1 -8 3 -5 6 6 6 11 1 17 -2 13 -5z m185 -36 c-8 -8 -9 -4
-5 13 4 13 8 18 11 10 2 -7 -1 -18 -6 -23z m-162 2 c0 -5 -7 -10 -16 -10 -8 0
-12 5 -9 10 3 6 10 10 16 10 5 0 9 -4 9 -10z m125 0 c3 -5 2 -10 -4 -10 -5 0
-13 5 -16 10 -3 6 -2 10 4 10 5 0 13 -4 16 -10z m-95 -24 c0 -2 -7 -7 -16 -10
-8 -3 -12 -2 -9 4 6 10 25 14 25 6z m93 -57 c-6 -6 -17 -8 -24 -3 -9 5 -8 9 7
14 23 9 31 3 17 -11z m-410 -1132 c3 -8 -1 -14 -8 -14 -7 0 -11 6 -8 14 3 7 6
13 8 13 2 0 5 -6 8 -13z m147 -87 c0 -5 -4 -10 -10 -10 -5 0 -10 5 -10 10 0 6
5 10 10 10 6 0 10 -4 10 -10z m-303 -149 c0 -11 -5 -18 -9 -15 -4 3 -5 11 -1
19 7 21 12 19 10 -4z m0 -63 c-3 -8 -6 -5 -6 6 -1 11 2 17 5 13 3 -3 4 -12 1
-19z m-91 -72 c0 -14 -5 -21 -9 -17 -4 4 -5 15 -1 24 9 24 12 21 10 -7z m-11
-45 c-6 -5 -25 10 -25 20 0 5 6 4 14 -3 8 -7 12 -15 11 -17z m-235 -271 c0 -5
-5 -10 -11 -10 -5 0 -7 5 -4 10 3 6 8 10 11 10 2 0 4 -4 4 -10z"/>
<path d="M570 8390 c0 -5 5 -10 11 -10 5 0 7 5 4 10 -3 6 -8 10 -11 10 -2 0
-4 -4 -4 -10z"/>
<path d="M600 8360 c0 -5 5 -10 11 -10 5 0 7 5 4 10 -3 6 -8 10 -11 10 -2 0
-4 -4 -4 -10z"/>
<path d="M3205 9300 c-49 -44 -178 -143 -285 -219 -248 -177 -297 -223 -259
-246 7 -5 5 -13 -6 -25 -10 -11 -14 -24 -9 -31 4 -8 3 -10 -4 -5 -7 4 -17 4
-22 1 -6 -4 148 -167 342 -362 380 -383 434 -438 459 -468 22 -27 60 -57 65
-52 5 5 -77 90 -433 450 -157 159 -283 291 -279 294 3 3 45 -32 93 -78 48 -46
103 -100 124 -119 20 -19 150 -147 288 -284 l251 -249 -27 -24 -26 -25 -106
110 c-118 122 -715 734 -745 763 -49 47 -48 0 1 -55 20 -22 127 -135 238 -251
110 -115 288 -301 394 -412 216 -226 218 -228 282 -170 20 17 57 51 83 73 25
23 46 47 46 53 0 6 3 10 8 9 4 -2 59 49 123 112 217 214 460 444 674 636 194
174 276 248 304 274 15 14 44 39 66 55 84 66 172 145 205 184 19 22 39 41 44
41 7 0 67 46 120 92 6 4 -326 8 -737 8 -534 0 -747 -3 -747 -11 0 -6 9 -13 20
-16 11 -3 17 -9 14 -14 -7 -12 26 -59 41 -59 7 0 19 13 27 30 17 39 38 47 38
15 0 -15 -6 -25 -14 -25 -8 0 -18 -9 -21 -20 -11 -35 -34 -51 -56 -40 -10 6
-19 17 -19 25 0 8 -9 20 -20 27 -14 9 -20 24 -20 50 l0 38 -212 0 -213 -1 -90
-79z m706 -238 c27 -11 39 -30 39 -63 0 -28 -45 -25 -82 6 -20 17 -37 24 -50
19 -17 -5 -19 -3 -13 15 7 22 -4 28 -21 11 -7 -7 -21 -7 -43 1 -20 7 -28 14
-21 19 16 10 161 4 191 -8z m-1131 -267 c13 -14 21 -25 18 -25 -2 0 -15 11
-28 25 -13 14 -21 25 -18 25 2 0 15 -11 28 -25z m-15 -143 c-3 -3 -11 0 -18 7
-9 10 -8 11 6 5 10 -3 15 -9 12 -12z m368 -129 c17 -16 48 -45 69 -65 20 -21
40 -38 43 -38 7 0 55 -47 55 -55 0 -13 -19 -3 -46 25 -16 16 -32 30 -35 30
-13 0 -143 130 -131 130 8 0 28 -12 45 -27z"/>
<path d="M6409 9202 c-228 -234 -282 -292 -406 -444 -58 -71 -108 -128 -113
-128 -5 0 -12 5 -15 10 -12 19 -121 68 -167 75 -58 9 -100 -10 -163 -73 -75
-77 -81 -142 -21 -261 28 -54 107 -163 114 -156 3 2 -1 11 -7 19 -7 8 -10 20
-6 26 3 5 2 10 -3 10 -10 0 -42 82 -42 107 0 22 29 15 46 -12 9 -14 14 -34 11
-45 -3 -11 -2 -20 3 -20 4 0 10 -17 14 -39 3 -21 13 -44 21 -51 8 -7 15 -19
15 -26 0 -8 8 -14 18 -14 11 0 13 3 6 8 -16 10 -45 82 -33 82 12 0 42 -35 46
-55 2 -8 4 -21 6 -28 1 -7 12 -26 23 -42 37 -54 39 -59 18 -52 -30 11 44 -50
102 -83 28 -16 79 -37 114 -46 58 -15 66 -15 105 1 63 24 145 133 145 194 0
28 27 93 43 99 4 2 7 12 7 22 0 9 7 23 15 30 8 7 15 20 15 30 0 10 7 23 15 30
8 7 12 16 9 22 -3 5 -11 4 -19 -2 -8 -7 -19 -9 -25 -5 -14 9 -13 35 3 35 6 0
1 6 -12 13 -23 12 -27 32 -6 32 17 1 35 16 34 28 0 9 -2 9 -6 0 -2 -7 -9 -13
-14 -13 -16 0 -10 15 12 28 15 10 19 10 14 1 -5 -7 -3 -10 6 -7 8 3 14 12 14
21 0 9 8 24 18 34 16 16 19 16 28 3 9 -13 10 -12 5 3 -7 21 49 76 77 77 13 0
17 5 13 18 -5 13 1 17 24 18 37 1 46 9 31 27 -8 11 -6 18 11 33 19 16 21 16 9
1 -8 -9 -11 -21 -7 -25 11 -11 35 28 29 46 -4 15 -3 15 6 2 8 -12 13 -12 23
-2 10 10 10 15 -2 23 -13 9 -13 10 0 8 33 -3 50 2 50 14 0 18 38 52 47 43 4
-4 1 -12 -7 -17 -13 -9 -13 -10 0 -6 8 2 14 14 13 26 -2 16 3 21 22 21 16 0
25 6 25 15 0 8 9 15 20 15 11 0 20 7 20 15 0 9 9 14 24 13 15 -1 23 -8 21 -18
-1 -9 -10 -14 -24 -12 -16 3 -21 -2 -21 -20 0 -13 5 -29 12 -36 15 -15 105 59
114 94 3 13 12 24 20 24 8 0 14 5 14 11 0 6 18 29 40 51 22 22 40 47 40 54 0
8 4 14 10 14 5 0 6 7 3 17 -4 10 -2 14 4 10 5 -4 19 0 29 8 18 14 18 14 -8 15
-16 0 -28 5 -28 10 0 6 15 10 33 10 34 0 97 32 97 50 0 5 6 10 13 10 6 0 31
18 53 40 27 25 57 43 85 49 52 12 89 14 73 3 -7 -4 12 -8 41 -9 48 -2 54 0 59
22 15 57 35 55 -463 55 l-458 0 -174 -178z m568 -142 c7 0 13 -7 13 -15 0 -8
-6 -15 -14 -15 -8 0 -16 -4 -18 -9 -1 -6 -14 -12 -28 -15 -14 -2 -33 -7 -42
-11 -13 -5 -18 -2 -18 9 0 10 9 16 25 16 14 0 25 5 25 10 0 6 6 10 14 10 22 0
28 17 12 33 -8 8 -12 18 -8 21 4 4 11 -2 16 -13 5 -12 15 -21 23 -21z m-77
-110 c0 -5 -4 -10 -10 -10 -5 0 -10 5 -10 10 0 6 5 10 10 10 6 0 10 -4 10 -10z
m-650 -504 c0 -3 -4 -8 -10 -11 -5 -3 -10 -1 -10 4 0 6 5 11 10 11 6 0 10 -2
10 -4z"/>
<path d="M8195 9328 c-27 -29 -81 -87 -119 -129 -145 -154 -267 -296 -356
-412 -85 -111 -68 -102 -133 -68 -121 63 -200 52 -289 -40 -88 -91 -98 -157
-44 -271 28 -60 38 -72 29 -38 -8 32 25 25 45 -10 21 -36 47 -50 37 -20 -4 11
-2 20 2 20 12 0 83 -78 83 -90 0 -16 -11 -12 -30 11 l-18 20 -7 -20 c-3 -12
-10 -21 -13 -21 -12 0 -44 41 -38 47 3 4 -6 12 -20 20 -34 17 -39 17 -22 -2 7
-8 38 -43 68 -78 163 -187 377 -280 501 -217 75 39 135 152 127 239 -3 32 -1
48 5 44 6 -4 8 3 4 18 -5 18 -1 28 12 36 24 15 33 60 18 101 -9 27 -16 33 -34
29 -20 -4 -19 0 11 27 79 72 109 95 117 90 5 -3 6 2 2 12 -5 13 -2 15 14 10
15 -5 22 1 33 28 7 20 17 33 20 31 8 -5 39 26 38 38 0 5 4 12 8 15 4 4 4 2 0
-5 -14 -24 11 -21 30 4 10 15 25 32 32 39 6 7 12 17 12 23 0 6 7 11 15 11 9 0
12 6 8 17 -4 11 -3 14 6 9 6 -4 18 -2 26 4 11 9 15 9 15 1 0 -6 14 2 31 20 22
22 36 29 52 25 21 -5 21 -4 4 9 -16 11 -16 16 -5 34 8 13 23 21 39 21 17 0 30
8 39 25 7 14 17 25 22 25 13 0 9 -30 -4 -31 -7 -1 -2 -4 12 -8 31 -10 40 -5
40 20 0 10 6 19 14 19 8 0 18 9 21 20 3 11 13 20 21 20 8 0 12 5 9 10 -3 6 5
14 19 20 14 5 26 17 26 25 0 9 7 18 15 21 8 4 15 12 15 19 0 7 11 20 24 29 14
8 27 24 30 34 6 16 124 102 142 102 4 0 16 8 27 18 15 13 43 18 130 22 76 3
112 9 115 18 3 9 -100 12 -491 12 l-494 0 -48 -52z m418 -278 c-3 -11 -9 -23
-14 -26 -10 -6 -12 39 -3 49 12 12 22 -3 17 -23z m-79 -55 c-4 -8 -11 -15 -16
-15 -6 0 -5 6 2 15 7 8 14 15 16 15 2 0 1 -7 -2 -15z m-1034 -446 c0 -6 -4 -7
-10 -4 -5 3 -10 11 -10 16 0 6 5 7 10 4 6 -3 10 -11 10 -16z m-74 -294 c4 -8
12 -15 20 -15 16 0 19 -26 4 -35 -5 -3 -15 3 -22 15 -7 11 -18 20 -25 20 -14
0 -17 13 -6 23 11 11 23 8 29 -8z m84 -32 c0 -6 -4 -15 -10 -18 -5 -3 -10 -11
-10 -16 0 -6 4 -8 9 -4 6 3 13 0 18 -7 4 -7 25 -24 45 -38 21 -14 38 -30 38
-37 0 -6 9 -9 20 -6 14 4 20 0 20 -10 0 -8 6 -18 13 -20 8 -4 6 -6 -4 -6 -9
-1 -28 8 -42 19 -14 11 -32 20 -40 20 -9 0 -25 11 -36 26 -11 14 -23 25 -28
24 -20 -1 -45 32 -39 53 3 12 6 30 6 40 0 15 3 15 20 5 11 -7 20 -18 20 -25z
m25 -13 c3 -5 1 -10 -4 -10 -6 0 -11 5 -11 10 0 6 2 10 4 10 3 0 8 -4 11 -10z
m45 -35 c7 -9 10 -18 7 -21 -9 -9 -45 6 -51 21 -7 20 28 20 44 0z"/>
<path d="M10958 9365 c-4 -4 -28 -9 -55 -11 -66 -5 -210 -31 -245 -43 -15 -6
-42 -16 -58 -22 -53 -20 -83 -69 -297 -489 -38 -74 -59 -165 -48 -207 l7 -28
10 25 c6 14 15 36 20 50 20 50 49 102 62 111 9 7 16 19 104 167 29 48 69 104
88 123 74 70 94 92 90 97 -7 6 22 34 51 49 56 29 188 46 353 47 91 1 175 -3
188 -7 21 -8 22 -6 22 46 l0 55 -62 9 c-40 5 -73 5 -92 -2 -22 -7 -30 -7 -33
3 -3 7 -22 12 -48 12 -24 0 -45 5 -47 11 -2 5 -6 7 -10 4z m275 -52 c-7 -2
-19 -2 -25 0 -7 3 -2 5 12 5 14 0 19 -2 13 -5z"/>
<path d="M8561 8934 c0 -11 3 -14 6 -6 3 7 2 16 -1 19 -3 4 -6 -2 -5 -13z"/>
<path d="M6785 8810 c3 -5 8 -10 11 -10 2 0 4 5 4 10 0 6 -5 10 -11 10 -5 0
-7 -4 -4 -10z"/>
<path d="M9600 8720 c0 -5 5 -10 10 -10 6 0 10 5 10 10 0 6 -4 10 -10 10 -5 0
-10 -4 -10 -10z"/>
<path d="M9650 8700 c0 -6 5 -8 11 -4 6 3 16 0 21 -7 8 -12 9 -11 5 1 -4 18
-37 27 -37 10z"/>
<path d="M9720 8680 c0 -5 -13 -10 -30 -10 -16 0 -30 -4 -30 -9 0 -15 18 -22
22 -9 5 14 38 4 38 -12 0 -5 -7 -10 -15 -10 -8 0 -15 -5 -15 -11 0 -7 10 -9
26 -5 20 5 27 3 31 -14 3 -11 10 -20 15 -20 5 0 6 5 3 10 -7 11 15 13 39 4 14
-5 14 -8 0 -29 -18 -27 -2 -44 21 -25 12 10 15 10 15 -1 0 -8 -4 -20 -9 -28
-13 -20 11 -41 39 -34 19 5 21 3 15 -15 -5 -17 -3 -21 10 -16 18 7 44 -21 45
-49 0 -10 4 -16 9 -13 5 4 21 2 35 -4 18 -6 25 -16 23 -29 -4 -29 -17 -38 -27
-21 -7 12 -10 11 -16 -4 -9 -24 13 -38 49 -30 22 5 27 2 27 -14 0 -11 6 -23
13 -26 10 -5 10 -7 0 -12 -17 -8 -16 -29 2 -44 8 -7 15 -19 15 -27 0 -13 -3
-13 -15 -3 -13 10 -15 9 -15 -9 0 -18 4 -21 20 -16 15 5 21 0 26 -22 3 -15 7
-34 9 -40 3 -7 -4 -17 -15 -23 -11 -6 -17 -16 -14 -25 8 -19 28 -19 44 0 14
17 30 11 30 -11 0 -9 -11 -14 -34 -14 -35 0 -55 -13 -36 -25 5 -3 10 -1 10 6
0 7 3 9 8 5 4 -4 7 -13 7 -19 0 -6 11 -14 25 -18 21 -6 20 -7 -12 -8 -21 -1
-38 -6 -38 -12 0 -5 5 -7 11 -3 6 3 15 0 20 -7 8 -12 11 -12 18 1 6 8 14 11
18 6 4 -5 2 -11 -4 -13 -7 -3 -13 -13 -13 -23 0 -10 6 -20 13 -23 6 -2 8 -8 4
-13 -4 -5 -12 -2 -17 6 -17 27 -22 2 -6 -29 9 -16 16 -35 16 -40 0 -16 33 -51
47 -51 20 0 15 -17 -7 -23 -15 -4 -20 0 -20 15 0 17 -3 18 -15 8 -8 -7 -15
-19 -15 -28 0 -8 3 -12 7 -9 13 13 33 -16 33 -49 0 -21 5 -33 12 -31 7 1 13
-15 16 -43 2 -24 10 -56 17 -70 15 -30 3 -73 -19 -64 -11 4 -13 0 -9 -15 3
-12 12 -21 21 -21 12 0 14 -9 8 -46 -3 -26 -6 -53 -6 -60 0 -8 -7 -14 -15 -14
-21 0 -19 -10 7 -37 l21 -23 -28 0 c-25 0 -27 -3 -22 -29 5 -23 2 -30 -13 -34
-11 -3 -20 -13 -20 -22 0 -12 5 -15 16 -11 14 5 15 4 4 -8 -6 -9 -20 -14 -30
-13 -27 3 -29 -17 -2 -21 27 -4 29 -22 2 -29 -11 -3 -18 -9 -15 -13 3 -4 -2
-10 -9 -13 -8 -3 -20 -15 -26 -27 -9 -17 -7 -22 12 -30 13 -5 17 -9 11 -9 -7
-1 -13 -11 -14 -23 0 -13 -3 -17 -6 -10 -6 16 -23 5 -23 -15 0 -23 -53 -79
-72 -75 -25 5 -32 -17 -12 -33 18 -13 17 -14 -10 -15 -21 0 -27 -4 -22 -15 3
-9 -4 -21 -20 -32 -19 -12 -22 -18 -12 -25 9 -7 4 -8 -14 -4 -17 4 -28 1 -31
-7 -3 -9 -8 -9 -21 2 -9 8 -20 11 -24 7 -4 -4 1 -13 11 -21 10 -7 15 -19 11
-29 -4 -10 -1 -16 9 -16 9 0 19 -5 23 -12 4 -7 3 -8 -4 -4 -7 4 -12 1 -12 -8
0 -9 7 -16 15 -16 8 0 15 -9 15 -20 0 -25 20 -27 21 -2 0 13 2 12 9 -5 6 -16
18 -23 37 -24 70 -2 117 -10 129 -20 10 -8 14 -8 14 0 0 6 15 11 33 11 31 0
34 4 51 51 13 36 22 47 29 40 14 -14 30 -14 22 -2 -3 6 4 15 15 21 11 6 20 17
20 25 0 8 6 18 14 22 8 4 15 12 14 16 0 4 6 22 13 40 6 18 13 34 14 37 1 3 6
16 12 30 65 155 112 305 143 462 13 66 50 113 81 105 12 -3 22 0 26 9 3 8 14
14 24 14 10 0 19 5 19 10 0 6 8 10 18 10 13 0 14 2 3 9 -7 5 -10 14 -6 20 5 9
10 9 20 1 8 -7 18 -9 24 -6 5 3 11 1 13 -6 3 -9 6 -9 12 0 4 7 2 12 -4 12 -6
0 -8 5 -5 10 3 6 18 10 32 10 13 0 36 9 50 20 16 13 34 18 47 15 19 -5 19 -5
3 5 -9 6 -22 8 -27 5 -26 -16 -4 13 47 61 34 33 63 52 71 49 8 -3 21 3 28 12
13 16 13 15 3 -9 -12 -27 -29 -38 -29 -19 0 4 -20 -10 -45 -32 -49 -44 -53
-52 -30 -61 9 -3 19 3 26 16 8 15 8 18 0 14 -6 -4 -11 -2 -11 3 0 6 9 11 19
11 11 0 21 5 23 11 2 6 15 12 28 13 18 1 24 6 22 19 -2 10 9 24 28 35 16 10
27 22 22 27 -4 4 3 5 16 2 13 -3 22 -1 22 7 0 7 16 18 36 25 19 7 38 19 41 27
3 8 11 14 18 14 17 0 54 20 88 46 24 20 27 28 27 85 l0 64 -47 -54 c-26 -30
-84 -78 -129 -107 -100 -65 -156 -113 -147 -127 4 -6 1 -7 -6 -3 -7 5 -21 0
-32 -10 -10 -9 -19 -13 -20 -8 -3 34 -15 52 -79 114 -69 67 -73 69 -89 51 -9
-10 -41 -31 -71 -46 -30 -15 -67 -34 -82 -41 -47 -25 -55 -19 -62 49 -10 93
-55 344 -72 406 -8 29 -34 83 -56 120 -23 36 -47 78 -55 94 -8 15 -19 27 -24
27 -5 0 -9 5 -9 11 0 19 -38 60 -45 49 -12 -20 -25 -10 -52 41 -16 29 -34 61
-40 73 -7 12 -11 27 -8 35 4 10 -2 12 -27 6 -18 -3 -58 -9 -88 -11 -30 -3 -65
-10 -77 -16 -24 -12 -58 -4 -48 12 3 5 16 11 28 11 12 1 4 5 -18 9 -22 5 -49
6 -60 4 -11 -3 -34 2 -50 10 -34 18 -65 21 -65 6z m56 -30 c8 0 14 -4 14 -10
0 -11 -33 -14 -43 -4 -3 3 -3 13 1 22 4 10 7 12 10 4 2 -7 10 -12 18 -12z
m334 -10 c0 -5 -2 -10 -4 -10 -3 0 -8 5 -11 10 -3 6 -1 10 4 10 6 0 11 -4 11
-10z m-46 -16 c15 -6 23 -34 10 -34 -13 0 -44 21 -44 30 0 11 11 13 34 4z
m971 -874 c-4 -6 -25 -20 -48 -31 -47 -24 -47 -21 3 15 37 26 55 32 45 16z
m-395 -62 c1 -21 2 -22 14 -5 18 24 40 21 56 -7 7 -14 18 -22 26 -19 8 3 21 0
29 -7 11 -9 22 -9 47 -1 18 7 35 8 41 2 5 -5 -24 -26 -69 -50 -43 -24 -98 -56
-122 -72 -53 -36 -102 -62 -102 -54 0 16 22 45 30 40 5 -3 11 -1 15 5 3 5 15
10 26 10 21 0 27 34 9 45 -7 4 -2 15 12 27 l23 20 -22 -6 c-24 -8 -24 -9 -27
67 -1 15 2 27 6 27 4 0 8 -10 8 -22z m-445 -7 c3 -5 1 -12 -5 -16 -5 -3 -10 1
-10 9 0 18 6 21 15 7z m565 -116 c0 -2 -10 -9 -22 -15 -22 -11 -22 -10 -4 4
21 17 26 19 26 11z m-50 -29 c0 -10 -32 -36 -43 -36 -7 1 -1 10 12 20 23 20
31 24 31 16z m-610 -516 c0 -5 -4 -10 -10 -10 -5 0 -10 5 -10 10 0 6 5 10 10
10 6 0 10 -4 10 -10z m-230 -320 c0 -5 -4 -10 -10 -10 -5 0 -10 5 -10 10 0 6
5 10 10 10 6 0 10 -4 10 -10z m100 -106 c0 -2 -11 -4 -25 -4 -14 0 -25 4 -25
9 0 4 11 6 25 3 14 -2 25 -6 25 -8z"/>
<path d="M10748 7623 c7 -3 16 -2 19 1 4 3 -2 6 -13 5 -11 0 -14 -3 -6 -6z"/>
<path d="M1381 8571 c-10 -7 -7 -9 12 -8 14 1 23 5 20 10 -6 9 -15 9 -32 -2z"/>
<path d="M8037 8526 c-3 -8 0 -16 6 -19 7 -3 13 3 13 14 0 22 -12 25 -19 5z"/>
<path d="M1315 8486 c0 -18 3 -22 12 -14 6 5 9 16 6 24 -8 22 -18 17 -18 -10z"/>
<path d="M1271 8424 c0 -11 3 -14 6 -6 3 7 2 16 -1 19 -3 4 -6 -2 -5 -13z"/>
<path d="M5600 8371 c0 -6 4 -13 10 -16 6 -3 7 1 4 9 -7 18 -14 21 -14 7z"/>
<path d="M9995 8180 c-3 -6 1 -7 9 -4 18 7 21 14 7 14 -6 0 -13 -4 -16 -10z"/>
<path d="M5725 8140 c3 -5 8 -10 11 -10 2 0 4 5 4 10 0 6 -5 10 -11 10 -5 0
-7 -4 -4 -10z"/>
<path d="M10125 7690 c4 -6 11 -8 16 -5 14 9 11 15 -7 15 -8 0 -12 -5 -9 -10z"/>
<path d="M10138 7613 c6 -2 18 -2 25 0 6 3 1 5 -13 5 -14 0 -19 -2 -12 -5z"/>
<path d="M10130 7580 c0 -5 7 -10 15 -10 8 0 15 5 15 10 0 6 -7 10 -15 10 -8
0 -15 -4 -15 -10z"/>
<path d="M10138 7543 c7 -3 16 -2 19 1 4 3 -2 6 -13 5 -11 0 -14 -3 -6 -6z"/>
<path d="M10180 7495 c0 -8 5 -15 10 -15 6 0 10 7 10 15 0 8 -4 15 -10 15 -5
0 -10 -7 -10 -15z"/>
<path d="M10125 7200 c-3 -5 1 -10 10 -10 9 0 13 5 10 10 -3 6 -8 10 -10 10
-2 0 -7 -4 -10 -10z"/>
<path d="M10038 6983 c7 -3 16 -2 19 1 4 3 -2 6 -13 5 -11 0 -14 -3 -6 -6z"/>
<path d="M10010 6915 c0 -8 5 -15 10 -15 6 0 10 7 10 15 0 8 -4 15 -10 15 -5
0 -10 -7 -10 -15z"/>
<path d="M7270 6840 c0 -6 4 -10 10 -10 5 0 26 -16 46 -35 20 -20 39 -33 42
-30 7 7 -57 69 -80 78 -10 3 -18 2 -18 -3z"/>
<path d="M11230 6771 c0 -17 5 -31 10 -31 6 0 10 11 10 24 0 14 -4 28 -10 31
-6 4 -10 -7 -10 -24z"/>
<path d="M7385 6734 c9 -9 18 -14 21 -11 9 9 -6 27 -22 27 -13 0 -13 -2 1 -16z"/>
<path d="M6239 6700 c-102 -31 -158 -152 -115 -253 7 -18 44 -66 82 -108 88
-94 125 -148 153 -225 27 -73 54 -101 141 -144 86 -43 137 -87 282 -244 67
-72 169 -180 226 -241 139 -146 156 -172 153 -237 -1 -33 5 -65 18 -92 26 -52
339 -378 394 -410 24 -13 68 -26 100 -30 32 -4 73 -14 90 -23 18 -8 129 -111
247 -227 118 -116 316 -308 440 -426 124 -118 332 -321 463 -450 133 -132 254
-243 275 -253 57 -27 149 -19 196 16 74 57 98 165 56 251 -20 43 -344 369
-605 611 -77 71 -262 251 -410 400 -319 319 -345 355 -345 473 0 41 -6 88 -15
108 -8 19 -68 90 -134 158 -90 91 -119 127 -116 141 7 27 -31 75 -44 56 -6 -9
-11 -10 -15 -2 -4 6 -2 11 5 11 8 0 8 4 -1 15 -7 9 -21 13 -30 10 -9 -3 -37 6
-61 20 -47 27 -115 33 -151 14 -15 -8 -19 -8 -14 0 4 7 -1 11 -12 11 -44 0
-154 89 -332 268 -200 201 -261 278 -314 393 -39 86 -46 93 -145 145 -54 28
-105 68 -183 142 -59 57 -124 110 -143 118 -37 15 -94 17 -136 4z m117 -105
c22 -20 24 -26 11 -31 -8 -3 -27 2 -41 11 -19 13 -29 14 -45 5 -12 -6 -21 -15
-21 -20 0 -14 14 -12 28 2 6 6 15 9 18 5 9 -8 -24 -40 -34 -33 -13 8 -1 -48
12 -56 25 -17 45 -7 57 26 7 19 16 33 21 30 4 -3 8 1 9 8 0 7 5 3 11 -9 14
-28 -11 -70 -47 -79 -39 -10 -93 4 -110 29 -57 82 57 180 131 112z m392 -257
c7 -7 12 -20 12 -29 0 -17 -192 -203 -233 -226 -49 -27 -95 -5 -83 39 8 31 53
81 65 73 7 -3 8 0 5 9 -3 9 -2 16 2 16 5 0 21 10 36 23 14 12 35 28 45 35 10
7 12 10 4 6 -9 -5 -12 -3 -7 4 4 7 13 12 19 12 7 0 24 11 37 24 27 27 78 34
98 14z m832 -763 c0 -2 -15 -12 -32 -21 -34 -17 -73 -51 -216 -187 -46 -43
-86 -77 -88 -74 -7 6 245 247 281 269 28 17 55 24 55 13z m-343 -352 c7 -15
11 -29 8 -31 -6 -6 -45 37 -45 50 0 19 26 6 37 -19z m793 -78 c0 -13 -5 -36
-11 -52 -10 -29 -169 -196 -204 -215 -11 -6 28 36 86 93 109 106 129 141 114
190 -5 15 -4 19 4 15 6 -4 11 -18 11 -31z m-403 -331 c16 -7 21 -13 12 -13
-25 -1 -87 49 -184 150 -144 151 -140 155 7 10 75 -74 149 -140 165 -147z
m743 -395 c0 -19 -32 -21 -48 -4 -16 16 -16 17 7 10 16 -5 21 -4 17 4 -5 7 -1
9 8 5 9 -3 16 -10 16 -15z m86 -98 c-7 -11 -36 -16 -36 -6 0 3 6 12 13 20 13
15 33 3 23 -14z m83 -87 c-6 -7 -15 -11 -20 -8 -5 3 -3 11 4 18 16 18 31 8 16
-10z m101 -73 c0 -5 -7 -14 -15 -21 -16 -14 -18 -10 -9 14 6 17 24 22 24 7z"/>
<path d="M9660 6572 c0 -4 9 -8 20 -9 11 -1 20 2 20 8 0 5 -9 9 -20 9 -11 0
-20 -4 -20 -8z"/>
<path d="M9720 6561 c0 -5 -3 -16 -6 -25 -4 -11 -1 -16 10 -16 9 0 16 4 16 9
0 5 3 16 6 25 4 11 1 16 -10 16 -9 0 -16 -4 -16 -9z"/>
<path d="M9760 6535 c0 -8 9 -15 20 -15 11 0 20 2 20 5 0 2 -9 9 -20 15 -16 9
-20 8 -20 -5z"/>
<path d="M9776 6495 c4 -8 10 -15 14 -15 4 0 13 7 20 15 11 13 8 15 -13 15
-19 0 -25 -4 -21 -15z"/>
<path d="M9827 6493 c-20 -20 7 -36 100 -58 31 -8 55 -9 59 -4 3 5 22 9 42 9
l37 1 -29 16 c-23 12 -34 13 -47 4 -22 -13 -39 6 -18 21 11 8 10 8 -4 4 -10
-3 -23 -6 -28 -6 -5 0 -9 -8 -10 -17 0 -10 -3 -13 -6 -6 -2 7 -21 15 -41 19
-20 4 -40 11 -43 16 -3 4 -8 5 -12 1z"/>
<path d="M10160 6478 c0 -9 5 -20 10 -23 13 -8 13 5 0 25 -8 13 -10 13 -10 -2z"/>
<path d="M10240 6475 c-18 -21 -3 -32 16 -13 10 9 12 18 6 22 -5 3 -15 -1 -22
-9z"/>
<path d="M9837 6013 c-4 -3 -7 -11 -7 -17 0 -6 5 -5 12 2 6 6 9 14 7 17 -3 3
-9 2 -12 -2z"/>
<path d="M6960 5420 c0 -5 5 -10 11 -10 5 0 7 5 4 10 -3 6 -8 10 -11 10 -2 0
-4 -4 -4 -10z"/>
<path d="M1975 5390 c-3 -5 1 -10 9 -10 9 0 16 5 16 10 0 6 -4 10 -9 10 -6 0
-13 -4 -16 -10z"/>
<path d="M2020 5380 c0 -5 5 -10 11 -10 5 0 7 5 4 10 -3 6 -8 10 -11 10 -2 0
-4 -4 -4 -10z"/>
<path d="M7060 5375 c0 -8 5 -15 10 -15 6 0 10 7 10 15 0 8 -4 15 -10 15 -5 0
-10 -7 -10 -15z"/>
<path d="M2005 5325 c9 -22 19 -46 22 -52 5 -13 33 -19 33 -8 0 14 -30 62 -50
80 l-22 20 17 -40z"/>
<path d="M10665 5180 c-3 -5 -2 -10 4 -10 5 0 13 5 16 10 3 6 2 10 -4 10 -5 0
-13 -4 -16 -10z"/>
<path d="M11175 5160 c3 -5 8 -10 11 -10 2 0 4 5 4 10 0 6 -5 10 -11 10 -5 0
-7 -4 -4 -10z"/>
<path d="M11220 5160 c0 -5 7 -10 15 -10 8 0 15 5 15 10 0 6 -7 10 -15 10 -8
0 -15 -4 -15 -10z"/>
<path d="M11153 5133 c9 -2 25 -2 35 0 9 3 1 5 -18 5 -19 0 -27 -2 -17 -5z"/>
<path d="M10725 5120 c-3 -6 1 -7 9 -4 18 7 21 14 7 14 -6 0 -13 -4 -16 -10z"/>
<path d="M11065 5090 c3 -5 11 -10 16 -10 6 0 7 5 4 10 -3 6 -11 10 -16 10 -6
0 -7 -4 -4 -10z"/>
<path d="M10530 5055 c-13 -14 -19 -25 -13 -25 12 0 48 38 41 45 -2 3 -15 -6
-28 -20z"/>
<path d="M11200 5070 c0 -5 7 -10 15 -10 8 0 15 5 15 10 0 6 -7 10 -15 10 -8
0 -15 -4 -15 -10z"/>
<path d="M11008 5053 c7 -3 16 -2 19 1 4 3 -2 6 -13 5 -11 0 -14 -3 -6 -6z"/>
<path d="M11110 5049 c0 -5 5 -7 10 -4 6 3 10 8 10 11 0 2 -4 4 -10 4 -5 0
-10 -5 -10 -11z"/>
<path d="M10848 5013 c7 -3 16 -2 19 1 4 3 -2 6 -13 5 -11 0 -14 -3 -6 -6z"/>
<path d="M10665 4959 c-28 -20 -72 -69 -61 -69 7 0 102 89 96 90 -3 0 -19 -10
-35 -21z"/>
<path d="M10900 4959 c0 -5 5 -7 10 -4 6 3 10 8 10 11 0 2 -4 4 -10 4 -5 0
-10 -5 -10 -11z"/>
<path d="M10760 4935 c-7 -9 -10 -18 -7 -21 3 -3 10 4 17 15 13 25 8 27 -10 6z"/>
<path d="M10711 4896 c-7 -8 -8 -17 -3 -19 4 -3 13 3 20 14 14 22 0 26 -17 5z"/>
<path d="M10675 4860 c-3 -5 -1 -10 4 -10 6 0 11 5 11 10 0 6 -2 10 -4 10 -3
0 -8 -4 -11 -10z"/>
<path d="M10792 4854 c-7 -8 -8 -14 -3 -14 10 0 25 19 20 25 -2 1 -10 -3 -17
-11z"/>
<path d="M11020 4859 c0 -5 5 -7 10 -4 6 3 10 8 10 11 0 2 -4 4 -10 4 -5 0
-10 -5 -10 -11z"/>
<path d="M10864 4808 l-19 -23 25 20 c14 11 27 21 29 22 2 2 0 3 -6 3 -5 0
-18 -10 -29 -22z"/>
<path d="M11080 4810 c0 -5 5 -10 10 -10 6 0 10 5 10 10 0 6 -4 10 -10 10 -5
0 -10 -4 -10 -10z"/>
<path d="M10949 4783 c-13 -16 -12 -17 4 -4 9 7 17 15 17 17 0 8 -8 3 -21 -13z"/>
<path d="M11130 4745 c-11 -13 -10 -14 4 -9 9 3 23 1 31 -6 19 -16 20 -3 1 16
-18 18 -21 18 -36 -1z"/>
<path d="M11195 4690 c3 -5 13 -10 21 -10 8 0 14 5 14 10 0 6 -9 10 -21 10
-11 0 -17 -4 -14 -10z"/>
<path d="M11241 4634 c0 -11 3 -14 6 -6 3 7 2 16 -1 19 -3 4 -6 -2 -5 -13z"/>
<path d="M7546 4305 c4 -9 0 -15 -10 -15 -9 0 -16 -4 -16 -10 0 -5 4 -10 8
-10 5 0 18 -9 31 -21 12 -12 25 -18 29 -14 4 3 -1 11 -11 16 -10 6 -17 22 -17
39 0 17 -4 30 -10 30 -5 0 -7 -7 -4 -15z"/>
<path d="M414 4249 c-89 -8 -281 -42 -359 -62 -47 -13 -50 -15 -53 -49 l-3
-36 63 15 c214 53 451 67 688 42 58 -6 161 -22 230 -35 69 -14 136 -26 150
-29 14 -2 43 -8 65 -14 22 -6 56 -8 75 -5 24 4 62 -3 115 -20 107 -36 340
-152 447 -223 182 -121 374 -299 473 -437 11 -16 25 -34 30 -40 17 -20 35 -56
29 -56 -9 0 -44 41 -44 52 0 15 -91 100 -99 93 -3 -4 2 -12 12 -19 9 -7 17
-18 17 -23 0 -5 16 -26 35 -46 19 -20 35 -41 35 -47 0 -5 4 -10 8 -10 5 0 15
-12 23 -27 8 -16 17 -30 20 -33 4 -4 28 -40 87 -135 7 -11 18 -31 24 -45 7
-14 23 -42 36 -63 12 -21 20 -42 17 -47 -4 -6 1 -13 9 -16 9 -3 16 -11 16 -17
0 -5 12 -34 26 -64 25 -51 26 -54 9 -67 -24 -17 -13 -50 15 -43 11 3 19 2 18
-2 -1 -3 3 -16 10 -27 6 -12 9 -24 6 -27 -3 -3 0 -23 6 -43 7 -21 13 -52 12
-69 -1 -27 1 -28 12 -12 19 25 26 21 26 -12 0 -16 6 -31 12 -33 9 -3 8 -9 -5
-22 -9 -10 -17 -21 -17 -25 0 -12 26 -32 33 -25 3 3 9 -15 12 -41 4 -25 5 -48
2 -51 -2 -3 4 -37 15 -77 10 -40 22 -112 25 -162 3 -49 10 -93 16 -97 6 -4 4
-21 -7 -47 -9 -23 -16 -53 -16 -66 l0 -25 116 0 116 0 -7 93 c-20 284 -72 534
-166 787 -17 47 -36 99 -42 115 -5 17 -20 46 -33 66 -12 20 -41 71 -65 114
-32 60 -150 244 -176 274 -1 2 -6 1 -10 -3 -4 -4 -3 -10 3 -14 14 -9 26 -42
16 -42 -5 0 -15 13 -23 29 -37 77 -339 384 -479 487 -124 92 -216 154 -229
154 -5 0 -16 6 -23 13 -23 23 -239 128 -338 164 -114 42 -240 79 -335 99 -178
38 -481 53 -681 33z"/>
<path d="M7570 4180 c0 -5 5 -10 10 -10 6 0 10 5 10 10 0 6 -4 10 -10 10 -5 0
-10 -4 -10 -10z"/>
<path d="M7552 4150 c7 -11 17 -20 22 -20 5 0 1 9 -9 20 -10 11 -20 20 -22 20
-2 0 2 -9 9 -20z"/>
<path d="M7610 4153 c0 -14 19 -38 25 -32 8 8 -5 39 -16 39 -5 0 -9 -3 -9 -7z"/>
<path d="M570 4129 c0 -5 5 -7 10 -4 6 3 10 8 10 11 0 2 -4 4 -10 4 -5 0 -10
-5 -10 -11z"/>
<path d="M7643 4112 c-8 -13 -6 -21 10 -35 26 -22 36 -13 13 12 -13 14 -14 20
-5 23 8 3 9 7 3 11 -5 3 -15 -2 -21 -11z"/>
<path d="M7665 4031 c-3 -5 -1 -12 5 -16 5 -3 10 1 10 9 0 18 -6 21 -15 7z"/>
<path d="M11100 3904 c-74 -73 -163 -162 -198 -196 -81 -80 -212 -223 -212
-232 0 -3 8 -6 18 -6 14 0 15 -2 2 -9 -8 -6 -17 -8 -21 -5 -4 2 -5 -5 -2 -16
5 -20 6 -20 27 -3 11 10 64 61 116 113 52 52 98 94 103 92 4 -1 6 4 5 10 -2 7
2 12 8 11 6 -1 17 9 24 22 7 14 22 27 32 31 10 3 15 10 12 16 -5 8 -1 9 10 5
14 -5 17 -3 12 8 -3 9 0 15 9 15 8 0 15 4 15 9 0 5 9 13 21 16 13 4 18 12 15
22 -4 9 -1 14 6 11 14 -4 69 48 60 56 -3 4 -1 6 5 6 22 0 79 66 81 94 2 29 2
29 -18 11 -11 -10 -22 -16 -25 -13 -3 3 6 13 20 22 23 15 35 47 18 45 -5 0
-69 -61 -143 -135z m80 32 c0 -3 -4 -8 -10 -11 -5 -3 -10 -1 -10 4 0 6 5 11
10 11 6 0 10 -2 10 -4z m-100 -96 c0 -5 -5 -10 -11 -10 -5 0 -7 5 -4 10 3 6 8
10 11 10 2 0 4 -4 4 -10z"/>
<path d="M404 4006 c-55 -46 -26 -136 43 -136 59 0 100 56 82 110 -19 52 -80
65 -125 26z m66 -30 c0 -3 -4 -8 -10 -11 -5 -3 -10 -1 -10 4 0 6 5 11 10 11 6
0 10 -2 10 -4z"/>
<path d="M635 4007 c-20 -16 -27 -33 -28 -60 -1 -49 22 -72 73 -72 52 0 82 29
83 80 2 69 -74 99 -128 52z m51 -42 c-9 -9 -24 -15 -34 -13 -13 3 -10 7 13 19
36 18 43 16 21 -6z"/>
<path d="M883 4000 c-30 -12 -55 -63 -47 -95 14 -54 95 -75 134 -33 30 33 27
91 -6 117 -29 23 -46 25 -81 11z m47 -50 c0 -5 -5 -10 -11 -10 -5 0 -8 -4 -5
-9 3 -5 -6 -8 -19 -8 -29 0 -32 12 -7 26 22 13 42 14 42 1z"/>
<path d="M166 3969 c-29 -34 -31 -47 -15 -83 17 -36 61 -52 99 -36 36 15 50
37 50 79 0 71 -86 97 -134 40z m79 -19 c3 -5 -3 -10 -14 -10 -12 0 -21 -4 -21
-10 0 -5 -8 -10 -17 -10 -15 0 -13 4 7 20 29 22 36 24 45 10z"/>
<path d="M1123 3952 c-30 -4 -63 -48 -63 -81 0 -47 26 -71 76 -71 39 0 47 4
64 33 25 40 25 58 0 89 -21 28 -42 36 -77 30z m37 -52 c0 -5 -7 -10 -16 -10
-8 0 -13 -4 -10 -9 3 -5 -3 -11 -14 -14 -11 -3 -20 -1 -20 4 0 5 0 12 0 17 0
4 4 7 9 7 5 0 13 3 17 8 11 10 34 9 34 -3z"/>
<path d="M2 3870 c-2 -89 7 -99 48 -55 31 33 31 92 0 117 -40 33 -47 24 -48
-62z"/>
<path d="M6293 3878 c-126 -73 -199 -132 -271 -221 -61 -74 -122 -184 -122
-220 0 -14 5 -17 22 -11 30 9 38 19 77 98 66 132 160 223 301 290 38 18 75 39
83 47 8 8 24 22 36 31 11 10 21 22 21 28 0 24 -63 6 -147 -42z"/>
<path d="M1305 3857 c-36 -31 -39 -91 -6 -118 77 -63 179 43 111 116 -30 31
-70 32 -105 2z m65 -33 c0 -8 -4 -12 -10 -9 -5 3 -10 10 -10 16 0 5 5 9 10 9
6 0 10 -7 10 -16z m-29 -19 c-1 -15 -24 -12 -29 3 -3 9 2 13 12 10 10 -1 17
-7 17 -13z"/>
<path d="M537 3809 c-39 -10 -55 -25 -62 -59 -8 -39 17 -86 51 -94 56 -15 113
35 105 93 -6 50 -43 74 -94 60z m33 -47 c0 -14 -23 -32 -42 -32 -25 0 -23 13
5 26 28 15 37 16 37 6z"/>
<path d="M289 3789 c-35 -13 -53 -50 -45 -90 18 -93 156 -71 156 25 0 61 -47
88 -111 65z m51 -48 c0 -6 -4 -13 -10 -16 -5 -3 -10 1 -10 9 0 9 5 16 10 16 6
0 10 -4 10 -9z m-30 -11 c0 -5 -7 -10 -15 -10 -8 0 -15 5 -15 10 0 6 7 10 15
10 8 0 15 -4 15 -10z"/>
<path d="M729 3771 c-31 -32 -35 -50 -17 -84 29 -55 84 -63 129 -18 37 37 38
74 3 106 -37 34 -78 33 -115 -4z m71 -29 c0 -14 -24 -32 -42 -32 -16 0 -25 20
-14 31 9 8 56 9 56 1z"/>
<path d="M1519 3767 c-68 -52 -42 -147 41 -147 47 0 80 35 80 86 0 56 -76 95
-121 61z m41 -57 c-23 -23 -36 -25 -46 -9 -8 14 14 29 44 29 l22 0 -20 -20z"/>
<path d="M83 3752 c-12 -2 -33 -14 -47 -27 -72 -66 14 -173 94 -118 34 23 40
33 40 68 0 54 -35 85 -87 77z m-8 -80 c-8 -8 -25 10 -19 20 4 6 9 5 15 -3 4
-7 6 -15 4 -17z"/>
<path d="M959 3731 c-34 -35 -37 -68 -8 -105 26 -33 75 -35 113 -5 20 16 26
29 26 59 0 30 -6 43 -26 59 -37 29 -70 26 -105 -8z m71 -29 c0 -14 -23 -32
-41 -32 -28 0 -33 19 -7 29 29 12 48 13 48 3z"/>
<path d="M10397 3657 c81 -95 147 -155 166 -149 4 1 7 -2 7 -8 0 -5 8 -6 17
-3 12 5 15 2 10 -10 -4 -11 -2 -14 9 -10 7 3 14 6 14 8 0 16 -284 275 -302
275 -5 0 31 -46 79 -103z"/>
<path d="M1181 3664 c-60 -50 -30 -134 48 -134 74 0 109 83 56 135 -31 32 -66
32 -104 -1z m54 -34 c3 -5 2 -10 -4 -10 -6 0 -8 -7 -5 -15 7 -18 0 -19 -28 -4
-21 11 -21 12 -3 25 22 17 32 17 40 4z"/>
<path d="M1990 3655 c7 -8 17 -12 22 -9 6 4 5 10 -3 15 -22 14 -33 10 -19 -6z"/>
<path d="M4045 3638 c-145 -75 -272 -198 -349 -340 -58 -105 -67 -158 -26
-158 12 0 21 15 33 54 46 163 223 352 385 412 56 21 72 32 72 50 0 23 -51 15
-115 -18z"/>
<path d="M1724 3650 c-11 -4 -29 -25 -39 -46 -16 -34 -16 -40 -2 -70 20 -40
62 -52 105 -30 34 17 42 34 42 80 0 52 -57 87 -106 66z m46 -50 c0 -6 -6 -10
-14 -10 -8 0 -16 -6 -19 -12 -3 -10 -7 -10 -17 -1 -7 6 -10 15 -7 20 8 12 57
15 57 3z"/>
<path d="M2037 3625 c3 -8 9 -12 14 -9 12 7 11 11 -5 17 -10 4 -13 1 -9 -8z"/>
<path d="M7261 3626 c2 -2 18 -6 34 -10 22 -5 26 -4 15 4 -14 9 -59 15 -49 6z"/>
<path d="M7388 3623 c12 -2 30 -2 40 0 9 3 -1 5 -23 4 -22 0 -30 -2 -17 -4z"/>
<path d="M2070 3583 c0 -9 3 -13 6 -10 4 4 33 -20 64 -53 32 -33 63 -60 69
-60 7 0 -2 15 -18 33 -17 17 -31 35 -31 40 0 4 -5 7 -11 7 -6 0 -22 14 -36 30
-28 34 -43 38 -43 13z"/>
<path d="M395 3576 c-57 -25 -73 -101 -29 -135 43 -34 102 -21 123 26 22 48
12 87 -30 108 -33 18 -27 17 -64 1z m45 -44 c0 -12 -46 -32 -54 -25 -12 12 -6
22 9 17 8 -4 15 -1 15 5 0 6 7 11 15 11 8 0 15 -4 15 -8z"/>
<path d="M619 3575 c-55 -30 -57 -106 -5 -141 77 -50 157 65 91 131 -27 28
-48 31 -86 10z m51 -49 c-21 -20 -52 -24 -58 -7 -3 9 1 11 17 6 12 -4 21 -2
21 4 0 6 8 11 17 11 15 0 15 -2 3 -14z"/>
<path d="M1387 3570 c-34 -27 -38 -89 -7 -120 31 -31 93 -27 119 6 42 53 16
120 -49 130 -27 4 -42 1 -63 -16z m63 -37 c0 -8 -29 -33 -39 -33 -12 0 -24 18
-18 28 6 8 57 13 57 5z"/>
<path d="M8040 3565 c0 -8 4 -15 10 -15 5 0 7 7 4 15 -4 8 -8 15 -10 15 -2 0
-4 -7 -4 -15z"/>
<path d="M4785 3551 c-3 -5 -1 -12 5 -16 5 -3 10 1 10 9 0 18 -6 21 -15 7z"/>
<path d="M139 3521 c-55 -55 -28 -131 46 -131 75 0 112 84 60 135 -33 33 -70
32 -106 -4z m53 -41 c-25 -24 -32 -25 -32 -6 0 13 15 21 44 25 6 0 0 -8 -12
-19z"/>
<path d="M838 3540 c-9 -6 -22 -26 -28 -44 -23 -69 34 -123 101 -96 79 33 61
150 -23 150 -18 0 -41 -5 -50 -10z m62 -40 c0 -5 -5 -10 -11 -10 -6 0 -8 -7
-5 -16 5 -12 2 -15 -10 -10 -8 3 -20 6 -25 6 -5 0 -9 5 -9 10 0 6 7 10 15 10
8 0 15 5 15 10 0 6 7 10 15 10 8 0 15 -4 15 -10z"/>
<path d="M1894 3502 c-39 -27 -55 -91 -30 -124 34 -45 114 -36 137 16 18 38 3
95 -27 106 -30 12 -65 13 -80 2z m47 -45 c-1 -12 -15 -9 -19 4 -3 6 1 10 8 8
6 -3 11 -8 11 -12z m-26 -15 c0 -18 -20 -15 -23 4 -3 10 1 15 10 12 7 -3 13
-10 13 -16z"/>
<path d="M1055 3466 c-57 -57 -34 -128 42 -134 35 -3 44 1 68 29 21 26 25 39
21 63 -13 63 -86 86 -131 42z m65 -23 c-1 -20 -30 -45 -45 -39 -18 6 -16 31 3
31 5 0 14 3 18 8 4 4 11 7 16 7 4 0 8 -3 8 -7z"/>
<path d="M10637 3459 c4 -13 8 -18 11 -10 2 7 -1 18 -6 23 -8 8 -9 4 -5 -13z"/>
<path d="M0 3398 c0 -70 0 -71 20 -53 22 20 27 73 10 106 -20 36 -30 19 -30
-53z"/>
<path d="M1572 3437 c-68 -72 27 -175 108 -117 25 18 30 28 30 61 0 52 -27 79
-78 79 -27 0 -45 -7 -60 -23z m68 -25 c0 -20 -28 -45 -44 -39 -23 9 -20 26 7
37 29 11 37 12 37 2z"/>
<path d="M1273 3382 c-46 -36 -50 -110 -7 -139 56 -36 144 23 129 87 -13 55
-82 84 -122 52z m57 -38 c0 -10 -33 -33 -47 -34 -20 0 -15 28 5 33 27 7 42 8
42 1z"/>
<path d="M6810 3390 c0 -5 5 -10 10 -10 6 0 10 5 10 10 0 6 -4 10 -10 10 -5 0
-10 -4 -10 -10z"/>
<path d="M6855 3380 c3 -5 10 -10 16 -10 5 0 9 5 9 10 0 6 -7 10 -16 10 -8 0
-12 -4 -9 -10z"/>
<path d="M6920 3380 c0 -5 5 -10 10 -10 6 0 10 5 10 10 0 6 -4 10 -10 10 -5 0
-10 -4 -10 -10z"/>
<path d="M2470 3374 c0 -13 18 -39 24 -34 2 3 -2 14 -10 24 -8 11 -14 16 -14
10z"/>
<path d="M6962 3371 c4 -13 18 -16 19 -4 0 4 -5 9 -11 12 -7 2 -11 -2 -8 -8z"/>
<path d="M7030 3360 c0 -5 5 -10 10 -10 6 0 10 5 10 10 0 6 -4 10 -10 10 -5 0
-10 -4 -10 -10z"/>
<path d="M479 3347 c-21 -16 -39 -51 -39 -77 0 -31 44 -70 78 -70 68 0 109 93
62 140 -23 23 -76 26 -101 7z m66 -37 c3 -5 -3 -10 -14 -10 -11 0 -23 -4 -26
-10 -3 -5 -10 -10 -16 -10 -5 0 -9 5 -9 10 0 6 7 10 15 10 8 0 15 5 15 10 0 6
6 10 14 10 8 0 18 -4 21 -10z"/>
<path d="M7070 3351 c0 -6 5 -13 10 -16 6 -3 10 1 10 9 0 9 -4 16 -10 16 -5 0
-10 -4 -10 -9z"/>
<path d="M728 3339 c-37 -14 -61 -67 -47 -106 29 -85 149 -56 149 35 0 58 -47
91 -102 71z m42 -49 c0 -5 -4 -10 -9 -10 -6 0 -13 5 -16 10 -3 6 1 10 9 10 9
0 16 -4 16 -10z m-35 -9 c3 -5 1 -12 -4 -15 -5 -3 -11 1 -15 9 -6 16 9 21 19
6z"/>
<path d="M6810 3340 c0 -5 5 -10 11 -10 5 0 7 5 4 10 -3 6 -8 10 -11 10 -2 0
-4 -4 -4 -10z"/>
<path d="M6870 3341 c0 -6 5 -13 10 -16 6 -3 10 1 10 9 0 9 -4 16 -10 16 -5 0
-10 -4 -10 -9z"/>
<path d="M7135 3341 c-3 -5 -1 -12 5 -16 5 -3 10 1 10 9 0 18 -6 21 -15 7z"/>
<path d="M260 3333 c-26 -11 -49 -48 -50 -80 0 -68 85 -99 135 -48 63 62 -2
160 -85 128z m31 -56 c-10 -9 -11 -8 -5 6 3 10 9 15 12 12 3 -3 0 -11 -7 -18z
m-25 -14 c-10 -10 -19 5 -10 18 6 11 8 11 12 0 2 -7 1 -15 -2 -18z"/>
<path d="M2052 3333 c-17 -6 -42 -57 -42 -83 0 -32 44 -70 80 -70 67 0 107 93
60 140 -19 19 -67 26 -98 13z m56 -44 c-2 -6 -7 -9 -10 -7 -4 2 -13 -5 -21
-15 -12 -17 -14 -17 -26 -3 -11 13 -10 17 10 25 33 13 51 13 47 0z"/>
<path d="M6912 3331 c4 -13 18 -16 19 -4 0 4 -5 9 -11 12 -7 2 -11 -2 -8 -8z"/>
<path d="M6976 3332 c-3 -6 -1 -14 5 -17 15 -10 25 3 12 16 -7 7 -13 7 -17 1z"/>
<path d="M7172 3329 c2 -7 10 -15 17 -17 8 -3 12 1 9 9 -2 7 -10 15 -17 17 -8
3 -12 -1 -9 -9z"/>
<path d="M1785 3313 c-57 -15 -76 -105 -29 -142 15 -12 35 -21 46 -21 27 0 74
26 82 45 17 46 -5 100 -47 115 -16 5 -30 9 -31 9 -1 -1 -10 -4 -21 -6z m35
-48 c0 -14 -40 -46 -49 -40 -17 10 -13 33 7 38 26 7 42 8 42 2z"/>
<path d="M6720 3304 c0 -8 5 -12 10 -9 6 4 8 11 5 16 -9 14 -15 11 -15 -7z"/>
<path d="M7020 3310 c0 -5 5 -10 10 -10 6 0 10 5 10 10 0 6 -4 10 -10 10 -5 0
-10 -4 -10 -10z"/>
<path d="M7080 3313 c0 -5 5 -15 10 -23 8 -12 10 -11 10 8 0 12 -4 22 -10 22
-5 0 -10 -3 -10 -7z"/>
<path d="M7240 3310 c0 -5 5 -10 11 -10 5 0 7 5 4 10 -3 6 -8 10 -11 10 -2 0
-4 -4 -4 -10z"/>
<path d="M6825 3301 c-3 -5 -1 -12 5 -16 5 -3 10 1 10 9 0 18 -6 21 -15 7z"/>
<path d="M6760 3290 c0 -5 5 -10 10 -10 6 0 10 5 10 10 0 6 -4 10 -10 10 -5 0
-10 -4 -10 -10z"/>
<path d="M6866 3292 c-3 -6 -1 -14 5 -17 14 -9 20 -2 10 14 -6 8 -11 9 -15 3z"/>
<path d="M6926 3292 c-3 -6 -1 -14 5 -17 15 -10 25 3 12 16 -7 7 -13 7 -17 1z"/>
<path d="M7130 3284 c0 -8 5 -12 10 -9 6 4 8 11 5 16 -9 14 -15 11 -15 -7z"/>
<path d="M921 3264 c-27 -34 -27 -88 -1 -114 30 -30 85 -27 115 6 50 54 17
134 -55 134 -30 0 -43 -6 -59 -26z m68 -39 c-10 -8 -48 -9 -46 0 1 5 8 10 15
12 8 1 17 4 20 8 4 3 8 1 10 -5 2 -6 2 -13 1 -15z"/>
<path d="M7185 3280 c3 -5 10 -10 16 -10 5 0 9 5 9 10 0 6 -7 10 -16 10 -8 0
-12 -4 -9 -10z"/>
<path d="M22 3264 c-18 -12 -22 -25 -22 -69 0 -46 4 -57 24 -70 75 -49 160 79
90 134 -32 25 -61 27 -92 5z"/>
<path d="M6970 3270 c0 -5 7 -10 16 -10 8 0 12 5 9 10 -3 6 -10 10 -16 10 -5
0 -9 -4 -9 -10z"/>
<path d="M7030 3271 c0 -6 5 -13 10 -16 6 -3 10 1 10 9 0 9 -4 16 -10 16 -5 0
-10 -4 -10 -9z"/>
<path d="M1455 3245 c-18 -17 -25 -35 -25 -63 0 -49 25 -74 76 -75 74 -2 115
97 58 142 -36 28 -79 27 -109 -4z m65 -37 c0 -6 -3 -8 -7 -5 -3 4 -12 -1 -19
-11 -10 -13 -15 -14 -24 -5 -7 6 -9 16 -6 22 9 15 56 14 56 -1z"/>
<path d="M6670 3260 c0 -5 5 -10 11 -10 5 0 7 5 4 10 -3 6 -8 10 -11 10 -2 0
-4 -4 -4 -10z"/>
<path d="M7230 3260 c0 -5 5 -10 10 -10 6 0 10 5 10 10 0 6 -4 10 -10 10 -5 0
-10 -4 -10 -10z"/>
<path d="M6715 3250 c3 -5 8 -10 11 -10 2 0 4 5 4 10 0 6 -5 10 -11 10 -5 0
-7 -4 -4 -10z"/>
<path d="M6770 3250 c0 -5 5 -10 10 -10 6 0 10 5 10 10 0 6 -4 10 -10 10 -5 0
-10 -4 -10 -10z"/>
<path d="M7080 3250 c0 -5 5 -10 10 -10 6 0 10 5 10 10 0 6 -4 10 -10 10 -5 0
-10 -4 -10 -10z"/>
<path d="M7140 3246 c0 -9 5 -16 10 -16 6 0 10 4 10 9 0 6 -4 13 -10 16 -5 3
-10 -1 -10 -9z"/>
<path d="M7292 3251 c4 -13 18 -16 19 -4 0 4 -5 9 -11 12 -7 2 -11 -2 -8 -8z"/>
<path d="M6815 3240 c3 -5 10 -10 16 -10 5 0 9 5 9 10 0 6 -7 10 -16 10 -8 0
-12 -4 -9 -10z"/>
<path d="M6880 3240 c0 -5 5 -10 10 -10 6 0 10 5 10 10 0 6 -4 10 -10 10 -5 0
-10 -4 -10 -10z"/>
<path d="M6920 3230 c0 -5 7 -10 16 -10 8 0 12 5 9 10 -3 6 -10 10 -16 10 -5
0 -9 -4 -9 -10z"/>
<path d="M6980 3231 c0 -6 5 -13 10 -16 6 -3 10 1 10 9 0 9 -4 16 -10 16 -5 0
-10 -4 -10 -9z"/>
<path d="M7180 3230 c0 -5 5 -10 10 -10 6 0 10 5 10 10 0 6 -4 10 -10 10 -5 0
-10 -4 -10 -10z"/>
<path d="M7335 3230 c3 -5 11 -10 16 -10 6 0 7 5 4 10 -3 6 -11 10 -16 10 -6
0 -7 -4 -4 -10z"/>
<path d="M7030 3221 c0 -5 5 -13 10 -16 6 -3 10 -2 10 4 0 5 -4 13 -10 16 -5
3 -10 2 -10 -4z"/>
<path d="M7240 3221 c0 -6 5 -13 10 -16 6 -3 10 1 10 9 0 9 -4 16 -10 16 -5 0
-10 -4 -10 -9z"/>
<path d="M4610 3206 c0 -9 5 -16 10 -16 6 0 10 4 10 9 0 6 -4 13 -10 16 -5 3
-10 -1 -10 -9z"/>
<path d="M6620 3210 c0 -5 5 -10 10 -10 6 0 10 5 10 10 0 6 -4 10 -10 10 -5 0
-10 -4 -10 -10z"/>
<path d="M6725 3211 c-3 -5 -1 -12 5 -16 5 -3 10 1 10 9 0 18 -6 21 -15 7z"/>
<path d="M7086 3205 c4 -8 10 -12 15 -9 14 8 10 24 -6 24 -9 0 -12 -6 -9 -15z"/>
<path d="M7400 3209 c0 -5 5 -7 10 -4 6 3 10 8 10 11 0 2 -4 4 -10 4 -5 0 -10
-5 -10 -11z"/>
<path d="M4461 3194 c0 -11 3 -14 6 -6 3 7 2 16 -1 19 -3 4 -6 -2 -5 -13z"/>
<path d="M6770 3201 c0 -5 5 -13 10 -16 6 -3 10 -2 10 4 0 5 -4 13 -10 16 -5
3 -10 2 -10 -4z"/>
<path d="M6830 3200 c0 -5 5 -10 10 -10 6 0 10 5 10 10 0 6 -4 10 -10 10 -5 0
-10 -4 -10 -10z"/>
<path d="M7130 3200 c0 -5 5 -10 11 -10 5 0 7 5 4 10 -3 6 -8 10 -11 10 -2 0
-4 -4 -4 -10z"/>
<path d="M7285 3200 c3 -5 8 -10 11 -10 2 0 4 5 4 10 0 6 -5 10 -11 10 -5 0
-7 -4 -4 -10z"/>
<path d="M7441 3194 c0 -11 3 -14 6 -6 3 7 2 16 -1 19 -3 4 -6 -2 -5 -13z"/>
<path d="M1137 3175 c-36 -34 -37 -86 -2 -120 31 -32 66 -32 104 1 25 21 31
34 31 64 0 72 -79 105 -133 55z m73 -29 c0 -11 -19 -15 -25 -6 -3 5 1 10 9 10
9 0 16 -2 16 -4z m-40 -21 c0 -8 -4 -15 -9 -15 -13 0 -22 16 -14 24 11 11 23
6 23 -9z"/>
<path d="M4510 3190 c0 -5 5 -10 10 -10 6 0 10 5 10 10 0 6 -4 10 -10 10 -5 0
-10 -4 -10 -10z"/>
<path d="M6875 3190 c3 -5 8 -10 11 -10 2 0 4 5 4 10 0 6 -5 10 -11 10 -5 0
-7 -4 -4 -10z"/>
<path d="M6930 3191 c0 -6 5 -13 10 -16 6 -3 10 1 10 9 0 9 -4 16 -10 16 -5 0
-10 -4 -10 -9z"/>
<path d="M7190 3185 c0 -8 5 -15 10 -15 6 0 10 7 10 15 0 8 -4 15 -10 15 -5 0
-10 -7 -10 -15z"/>
<path d="M7340 3191 c0 -6 5 -13 10 -16 6 -3 10 1 10 9 0 9 -4 16 -10 16 -5 0
-10 -4 -10 -9z"/>
<path d="M4670 3180 c0 -5 5 -10 10 -10 6 0 10 5 10 10 0 6 -4 10 -10 10 -5 0
-10 -4 -10 -10z"/>
<path d="M6975 3180 c3 -5 11 -10 16 -10 6 0 7 5 4 10 -3 6 -11 10 -16 10 -6
0 -7 -4 -4 -10z"/>
<path d="M7040 3176 c0 -9 5 -16 10 -16 6 0 10 4 10 9 0 6 -4 13 -10 16 -5 3
-10 -1 -10 -9z"/>
<path d="M7495 3181 c-3 -5 -1 -12 5 -16 5 -3 10 1 10 9 0 18 -6 21 -15 7z"/>
<path d="M4550 3170 c0 -5 5 -10 11 -10 5 0 7 5 4 10 -3 6 -8 10 -11 10 -2 0
-4 -4 -4 -10z"/>
<path d="M7230 3170 c0 -5 5 -10 10 -10 6 0 10 5 10 10 0 6 -4 10 -10 10 -5 0
-10 -4 -10 -10z"/>
<path d="M7385 3170 c3 -5 8 -10 11 -10 2 0 4 5 4 10 0 6 -5 10 -11 10 -5 0
-7 -4 -4 -10z"/>
<path d="M8035 3170 c-3 -5 -1 -10 4 -10 6 0 11 5 11 10 0 6 -2 10 -4 10 -3 0
-8 -4 -11 -10z"/>
<path d="M4610 3155 c0 -8 5 -15 10 -15 6 0 10 7 10 15 0 8 -4 15 -10 15 -5 0
-10 -7 -10 -15z"/>
<path d="M4720 3160 c0 -5 5 -10 11 -10 5 0 7 5 4 10 -3 6 -8 10 -11 10 -2 0
-4 -4 -4 -10z"/>
<path d="M6581 3154 c0 -11 3 -14 6 -6 3 7 2 16 -1 19 -3 4 -6 -2 -5 -13z"/>
<path d="M6680 3154 c0 -8 5 -12 10 -9 6 4 8 11 5 16 -9 14 -15 11 -15 -7z"/>
<path d="M6780 3161 c0 -5 5 -13 10 -16 6 -3 10 -2 10 4 0 5 -4 13 -10 16 -5
3 -10 2 -10 -4z"/>
<path d="M7080 3160 c0 -5 5 -10 10 -10 6 0 10 5 10 10 0 6 -4 10 -10 10 -5 0
-10 -4 -10 -10z"/>
<path d="M7140 3155 c0 -8 5 -15 10 -15 6 0 10 7 10 15 0 8 -4 15 -10 15 -5 0
-10 -7 -10 -15z"/>
<path d="M7290 3160 c0 -5 5 -10 10 -10 6 0 10 5 10 10 0 6 -4 10 -10 10 -5 0
-10 -4 -10 -10z"/>
<path d="M2193 3148 c-27 -13 -46 -66 -37 -102 15 -62 112 -66 148 -6 14 25
16 37 7 62 -19 53 -65 72 -118 46z m54 -44 c3 -10 -43 -34 -52 -26 -11 11 -4
31 13 35 22 6 35 3 39 -9z"/>
<path d="M6620 3150 c0 -5 5 -10 11 -10 5 0 7 5 4 10 -3 6 -8 10 -11 10 -2 0
-4 -4 -4 -10z"/>
<path d="M6720 3150 c0 -5 5 -10 10 -10 6 0 10 5 10 10 0 6 -4 10 -10 10 -5 0
-10 -4 -10 -10z"/>
<path d="M6886 3145 c4 -8 10 -12 15 -9 11 6 2 24 -11 24 -5 0 -7 -7 -4 -15z"/>
<path d="M7445 3150 c3 -5 8 -10 11 -10 2 0 4 5 4 10 0 6 -5 10 -11 10 -5 0
-7 -4 -4 -10z"/>
<path d="M7950 3113 c-116 -105 -128 -119 -115 -142 l11 -22 20 22 c17 20 17
22 1 16 -15 -6 -16 -4 -6 15 9 17 13 18 21 7 7 -10 7 -8 3 9 -8 26 3 29 21 5
13 -16 13 -15 5 9 -8 22 -7 28 7 32 31 10 111 96 89 96 -2 0 -28 -21 -57 -47z"/>
<path d="M4450 3139 c0 -5 5 -7 10 -4 6 3 10 8 10 11 0 2 -4 4 -10 4 -5 0 -10
-5 -10 -11z"/>
<path d="M6828 3143 c7 -3 16 -2 19 1 4 3 -2 6 -13 5 -11 0 -14 -3 -6 -6z"/>
<path d="M6930 3140 c0 -5 5 -10 11 -10 5 0 7 5 4 10 -3 6 -8 10 -11 10 -2 0
-4 -4 -4 -10z"/>
<path d="M6990 3134 c0 -8 5 -12 10 -9 6 4 8 11 5 16 -9 14 -15 11 -15 -7z"/>
<path d="M7185 3140 c3 -5 8 -10 11 -10 2 0 4 5 4 10 0 6 -5 10 -11 10 -5 0
-7 -4 -4 -10z"/>
<path d="M7335 3140 c3 -5 8 -10 11 -10 2 0 4 5 4 10 0 6 -5 10 -11 10 -5 0
-7 -4 -4 -10z"/>
<path d="M1900 3108 c-25 -42 -25 -69 1 -102 29 -36 89 -37 126 0 21 21 24 32
20 61 -9 53 -32 73 -84 73 -38 0 -46 -4 -63 -32z m70 -23 c0 -17 -36 -39 -50
-30 -13 8 -1 33 18 38 29 8 32 7 32 -8z"/>
<path d="M4490 3130 c0 -5 5 -10 11 -10 5 0 7 5 4 10 -3 6 -8 10 -11 10 -2 0
-4 -4 -4 -10z"/>
<path d="M4775 3130 c3 -5 8 -10 11 -10 2 0 4 5 4 10 0 6 -5 10 -11 10 -5 0
-7 -4 -4 -10z"/>
<path d="M7030 3131 c0 -5 5 -13 10 -16 6 -3 10 -2 10 4 0 5 -4 13 -10 16 -5
3 -10 2 -10 -4z"/>
<path d="M7240 3130 c0 -5 5 -10 10 -10 6 0 10 5 10 10 0 6 -4 10 -10 10 -5 0
-10 -4 -10 -10z"/>
<path d="M7390 3131 c0 -5 5 -13 10 -16 6 -3 10 -2 10 4 0 5 -4 13 -10 16 -5
3 -10 2 -10 -4z"/>
<path d="M7590 3130 c0 -5 5 -10 10 -10 6 0 10 5 10 10 0 6 -4 10 -10 10 -5 0
-10 -4 -10 -10z"/>
<path d="M340 3101 c-50 -49 -34 -122 29 -136 55 -12 100 27 101 86 0 42 -24
68 -69 75 -25 4 -37 -1 -61 -25z"/>
<path d="M576 3108 c-35 -33 -42 -78 -16 -111 46 -58 140 -19 140 57 0 68 -73
100 -124 54z m64 -28 c0 -5 -4 -10 -10 -10 -5 0 -10 5 -10 10 0 6 5 10 10 10
6 0 10 -4 10 -10z m-40 -16 c0 -8 -5 -12 -10 -9 -6 4 -8 11 -5 16 9 14 15 11
15 -7z"/>
<path d="M4710 3114 c0 -8 5 -12 10 -9 6 3 10 10 10 16 0 5 -4 9 -10 9 -5 0
-10 -7 -10 -16z"/>
<path d="M4815 3120 c-3 -5 -1 -10 4 -10 6 0 11 5 11 10 0 6 -2 10 -4 10 -3 0
-8 -4 -11 -10z"/>
<path d="M7090 3121 c0 -6 5 -13 10 -16 6 -3 10 1 10 9 0 9 -4 16 -10 16 -5 0
-10 -4 -10 -9z"/>
<path d="M7280 3121 c0 -5 5 -13 10 -16 6 -3 10 -2 10 4 0 5 -4 13 -10 16 -5
3 -10 2 -10 -4z"/>
<path d="M1649 3114 c-22 -7 -49 -57 -49 -91 0 -38 37 -73 77 -73 67 0 109 87
66 139 -18 21 -64 33 -94 25z m51 -54 c0 -9 -14 -14 -32 -11 -5 0 -8 -3 -8 -9
0 -5 -7 -10 -15 -10 -14 0 -21 21 -10 31 9 10 65 9 65 -1z"/>
<path d="M6635 3110 c-3 -5 -1 -10 4 -10 6 0 11 5 11 10 0 6 -2 10 -4 10 -3 0
-8 -4 -11 -10z"/>
<path d="M6730 3110 c0 -5 5 -10 10 -10 6 0 10 5 10 10 0 6 -4 10 -10 10 -5 0
-10 -4 -10 -10z"/>
<path d="M7430 3110 c0 -5 5 -10 11 -10 5 0 7 5 4 10 -3 6 -8 10 -11 10 -2 0
-4 -4 -4 -10z"/>
<path d="M7540 3110 c0 -5 5 -10 10 -10 6 0 10 5 10 10 0 6 -4 10 -10 10 -5 0
-10 -4 -10 -10z"/>
<path d="M4590 3100 c0 -5 5 -10 11 -10 5 0 7 5 4 10 -3 6 -8 10 -11 10 -2 0
-4 -4 -4 -10z"/>
<path d="M6530 3099 c0 -5 5 -7 10 -4 6 3 10 8 10 11 0 2 -4 4 -10 4 -5 0 -10
-5 -10 -11z"/>
<path d="M6570 3100 c0 -5 5 -10 10 -10 6 0 10 5 10 10 0 6 -4 10 -10 10 -5 0
-10 -4 -10 -10z"/>
<path d="M6675 3100 c3 -5 8 -10 11 -10 2 0 4 5 4 10 0 6 -5 10 -11 10 -5 0
-7 -4 -4 -10z"/>
<path d="M6780 3100 c0 -5 5 -10 10 -10 6 0 10 5 10 10 0 6 -4 10 -10 10 -5 0
-10 -4 -10 -10z"/>
<path d="M6840 3099 c0 -5 5 -7 10 -4 6 3 10 8 10 11 0 2 -4 4 -10 4 -5 0 -10
-5 -10 -11z"/>
<path d="M6880 3100 c0 -5 5 -10 11 -10 5 0 7 5 4 10 -3 6 -8 10 -11 10 -2 0
-4 -4 -4 -10z"/>
<path d="M6940 3101 c0 -5 5 -13 10 -16 6 -3 10 -2 10 4 0 5 -4 13 -10 16 -5
3 -10 2 -10 -4z"/>
<path d="M7190 3101 c0 -6 5 -13 10 -16 6 -3 10 1 10 9 0 9 -4 16 -10 16 -5 0
-10 -4 -10 -9z"/>
<path d="M7340 3100 c0 -5 5 -10 10 -10 6 0 10 5 10 10 0 6 -4 10 -10 10 -5 0
-10 -4 -10 -10z"/>
<path d="M4755 3090 c3 -5 8 -10 11 -10 2 0 4 5 4 10 0 6 -5 10 -11 10 -5 0
-7 -4 -4 -10z"/>
<path d="M7490 3091 c0 -6 5 -13 10 -16 6 -3 10 1 10 9 0 9 -4 16 -10 16 -5 0
-10 -4 -10 -9z"/>
<path d="M8210 3090 c0 -5 5 -10 11 -10 5 0 7 5 4 10 -3 6 -8 10 -11 10 -2 0
-4 -4 -4 -10z"/>
<path d="M819 3083 c-20 -5 -49 -55 -49 -86 0 -66 83 -96 135 -47 65 61 3 157
-86 133z m46 -42 c3 -5 1 -12 -5 -16 -5 -3 -10 1 -10 9 0 18 6 21 15 7z m-35
-21 c0 -5 -4 -10 -10 -10 -5 0 -10 5 -10 10 0 6 5 10 10 10 6 0 10 -4 10 -10z"/>
<path d="M6985 3080 c3 -5 8 -10 11 -10 2 0 4 5 4 10 0 6 -5 10 -11 10 -5 0
-7 -4 -4 -10z"/>
<path d="M7040 3080 c0 -5 5 -10 10 -10 6 0 10 5 10 10 0 6 -4 10 -10 10 -5 0
-10 -4 -10 -10z"/>
<path d="M7235 3080 c3 -5 8 -10 11 -10 2 0 4 5 4 10 0 6 -5 10 -11 10 -5 0
-7 -4 -4 -10z"/>
<path d="M134 3070 c-73 -29 -69 -139 5 -155 81 -18 135 82 76 140 -25 26 -45
30 -81 15z m6 -60 c0 -5 -5 -10 -11 -10 -5 0 -7 5 -4 10 3 6 8 10 11 10 2 0 4
-4 4 -10z"/>
<path d="M4690 3070 c0 -5 5 -10 11 -10 5 0 7 5 4 10 -3 6 -8 10 -11 10 -2 0
-4 -4 -4 -10z"/>
<path d="M4810 3070 c0 -5 5 -10 10 -10 6 0 10 5 10 10 0 6 -4 10 -10 10 -5 0
-10 -4 -10 -10z"/>
<path d="M7080 3070 c0 -5 5 -10 10 -10 6 0 10 5 10 10 0 6 -4 10 -10 10 -5 0
-10 -4 -10 -10z"/>
<path d="M7290 3070 c0 -5 5 -10 10 -10 6 0 10 5 10 10 0 6 -4 10 -10 10 -5 0
-10 -4 -10 -10z"/>
<path d="M7440 3065 c0 -8 4 -15 10 -15 5 0 7 7 4 15 -4 8 -8 15 -10 15 -2 0
-4 -7 -4 -15z"/>
<path d="M7635 3071 c-3 -5 -1 -12 5 -16 5 -3 10 1 10 9 0 18 -6 21 -15 7z"/>
<path d="M1327 3045 c-56 -53 -24 -135 53 -135 48 0 80 33 80 83 0 74 -77 103
-133 52z m73 -21 c0 -10 -45 -42 -52 -37 -14 8 -8 33 6 27 8 -3 17 -1 21 5 7
12 25 15 25 5z"/>
<path d="M5400 3057 c0 -18 46 -61 53 -50 9 14 -17 57 -36 61 -9 2 -17 -3 -17
-11z"/>
<path d="M6790 3060 c0 -5 5 -10 10 -10 6 0 10 5 10 10 0 6 -4 10 -10 10 -5 0
-10 -4 -10 -10z"/>
<path d="M7140 3060 c0 -5 5 -10 10 -10 6 0 10 5 10 10 0 6 -4 10 -10 10 -5 0
-10 -4 -10 -10z"/>
<path d="M6487 3053 c-4 -3 -7 -11 -7 -17 0 -6 5 -5 12 2 6 6 9 14 7 17 -3 3
-9 2 -12 -2z"/>
<path d="M6525 3050 c-3 -5 1 -10 10 -10 9 0 13 5 10 10 -3 6 -8 10 -10 10 -2
0 -7 -4 -10 -10z"/>
<path d="M6590 3049 c0 -5 5 -7 10 -4 6 3 10 8 10 11 0 2 -4 4 -10 4 -5 0 -10
-5 -10 -11z"/>
<path d="M6630 3050 c0 -5 5 -10 10 -10 6 0 10 5 10 10 0 6 -4 10 -10 10 -5 0
-10 -4 -10 -10z"/>
<path d="M6835 3050 c3 -5 8 -10 11 -10 2 0 4 5 4 10 0 6 -5 10 -11 10 -5 0
-7 -4 -4 -10z"/>
<path d="M6895 3050 c3 -5 8 -10 11 -10 2 0 4 5 4 10 0 6 -5 10 -11 10 -5 0
-7 -4 -4 -10z"/>
<path d="M7185 3050 c3 -5 8 -10 11 -10 2 0 4 5 4 10 0 6 -5 10 -11 10 -5 0
-7 -4 -4 -10z"/>
<path d="M7580 3051 c0 -6 5 -13 10 -16 6 -3 10 1 10 9 0 9 -4 16 -10 16 -5 0
-10 -4 -10 -9z"/>
<path d="M7000 3040 c0 -5 5 -10 10 -10 6 0 10 5 10 10 0 6 -4 10 -10 10 -5 0
-10 -4 -10 -10z"/>
<path d="M7240 3040 c0 -5 5 -10 10 -10 6 0 10 5 10 10 0 6 -4 10 -10 10 -5 0
-10 -4 -10 -10z"/>
<path d="M7390 3040 c0 -5 5 -10 10 -10 6 0 10 5 10 10 0 6 -4 10 -10 10 -5 0
-10 -4 -10 -10z"/>
<path d="M3980 3030 c0 -5 5 -10 11 -10 5 0 7 5 4 10 -3 6 -8 10 -11 10 -2 0
-4 -4 -4 -10z"/>
<path d="M4905 3030 c-3 -5 -2 -10 4 -10 5 0 13 5 16 10 3 6 2 10 -4 10 -5 0
-13 -4 -16 -10z"/>
<path d="M7045 3030 c3 -5 8 -10 11 -10 2 0 4 5 4 10 0 6 -5 10 -11 10 -5 0
-7 -4 -4 -10z"/>
<path d="M7100 3024 c0 -8 5 -12 10 -9 6 4 8 11 5 16 -9 14 -15 11 -15 -7z"/>
<path d="M4685 3020 c-3 -5 -1 -10 4 -10 6 0 11 5 11 10 0 6 -2 10 -4 10 -3 0
-8 -4 -11 -10z"/>
<path d="M4840 3010 c0 -5 5 -10 10 -10 6 0 10 5 10 10 0 6 -4 10 -10 10 -5 0
-10 -4 -10 -10z"/>
<path d="M4950 3010 c0 -5 5 -10 11 -10 5 0 7 5 4 10 -3 6 -8 10 -11 10 -2 0
-4 -4 -4 -10z"/>
<path d="M6651 3004 c0 -11 3 -14 6 -6 3 7 2 16 -1 19 -3 4 -6 -2 -5 -13z"/>
<path d="M6850 3010 c0 -5 5 -10 10 -10 6 0 10 5 10 10 0 6 -4 10 -10 10 -5 0
-10 -4 -10 -10z"/>
<path d="M7201 3004 c0 -11 3 -14 6 -6 3 7 2 16 -1 19 -3 4 -6 -2 -5 -13z"/>
<path d="M7340 3010 c0 -5 5 -10 10 -10 6 0 10 5 10 10 0 6 -4 10 -10 10 -5 0
-10 -4 -10 -10z"/>
<path d="M6546 2995 c4 -8 8 -15 10 -15 2 0 4 7 4 15 0 8 -4 15 -10 15 -5 0
-7 -7 -4 -15z"/>
<path d="M6590 3000 c0 -5 5 -10 11 -10 5 0 7 5 4 10 -3 6 -8 10 -11 10 -2 0
-4 -4 -4 -10z"/>
<path d="M6950 3000 c0 -5 5 -10 10 -10 6 0 10 5 10 10 0 6 -4 10 -10 10 -5 0
-10 -4 -10 -10z"/>
<path d="M7480 3000 c0 -5 5 -10 10 -10 6 0 10 5 10 10 0 6 -4 10 -10 10 -5 0
-10 -4 -10 -10z"/>
<path d="M1013 2980 c-32 -30 -39 -77 -16 -108 37 -49 105 -45 136 7 23 40 21
68 -8 96 -30 31 -82 33 -112 5z m67 -30 c0 -5 -7 -10 -15 -10 -8 0 -15 5 -15
10 0 6 7 10 15 10 8 0 15 -4 15 -10z m-40 -15 c0 -8 -4 -15 -10 -15 -5 0 -10
7 -10 15 0 8 5 15 10 15 6 0 10 -7 10 -15z"/>
<path d="M6490 2990 c0 -5 5 -10 11 -10 5 0 7 5 4 10 -3 6 -8 10 -11 10 -2 0
-4 -4 -4 -10z"/>
<path d="M6995 2990 c3 -5 8 -10 11 -10 2 0 4 5 4 10 0 6 -5 10 -11 10 -5 0
-7 -4 -4 -10z"/>
<path d="M7050 2990 c0 -5 5 -10 10 -10 6 0 10 5 10 10 0 6 -4 10 -10 10 -5 0
-10 -4 -10 -10z"/>
<path d="M7385 2990 c3 -5 8 -10 11 -10 2 0 4 5 4 10 0 6 -5 10 -11 10 -5 0
-7 -4 -4 -10z"/>
<path d="M7290 2980 c0 -5 5 -10 10 -10 6 0 10 5 10 10 0 6 -4 10 -10 10 -5 0
-10 -4 -10 -10z"/>
<path d="M7150 2970 c0 -5 5 -10 10 -10 6 0 10 5 10 10 0 6 -4 10 -10 10 -5 0
-10 -4 -10 -10z"/>
<path d="M7620 2969 c0 -5 5 -7 10 -4 6 3 10 8 10 11 0 2 -4 4 -10 4 -5 0 -10
-5 -10 -11z"/>
<path d="M4039 2953 c-13 -16 -12 -17 4 -4 9 7 17 15 17 17 0 8 -8 3 -21 -13z"/>
<path d="M0 2906 c0 -43 3 -57 11 -49 14 14 15 65 1 89 -9 16 -11 8 -12 -40z"/>
<path d="M2296 2929 c-61 -72 1 -164 86 -128 88 36 60 159 -37 159 -14 0 -34
-12 -49 -31z m68 -34 c-7 -16 -32 -27 -45 -19 -17 10 -9 33 14 36 29 5 37 1
31 -17z"/>
<path d="M6605 2950 c3 -5 8 -10 11 -10 2 0 4 5 4 10 0 6 -5 10 -11 10 -5 0
-7 -4 -4 -10z"/>
<path d="M6650 2950 c0 -5 5 -10 10 -10 6 0 10 5 10 10 0 6 -4 10 -10 10 -5 0
-10 -4 -10 -10z"/>
<path d="M7250 2950 c0 -5 5 -10 10 -10 6 0 10 5 10 10 0 6 -4 10 -10 10 -5 0
-10 -4 -10 -10z"/>
<path d="M7581 2944 c0 -11 3 -14 6 -6 3 7 2 16 -1 19 -3 4 -6 -2 -5 -13z"/>
<path d="M2042 2938 c-5 -7 -15 -29 -22 -50 -12 -32 -11 -40 4 -63 35 -54 114
-57 141 -5 36 70 2 130 -72 130 -22 0 -45 -6 -51 -12z m52 -62 c-4 -9 -14 -16
-23 -14 -23 5 -26 35 -4 40 24 6 35 -5 27 -26z"/>
<path d="M2824 2927 c4 -16 1 -27 -7 -30 -9 -4 -9 -6 1 -6 6 -1 12 -10 12 -22
0 -24 17 -59 29 -59 12 0 7 30 -6 38 -6 4 -10 27 -9 51 1 29 -4 46 -13 49 -10
3 -12 -2 -7 -21z"/>
<path d="M5350 2940 c0 -5 5 -10 11 -10 5 0 7 5 4 10 -3 6 -8 10 -11 10 -2 0
-4 -4 -4 -10z"/>
<path d="M6550 2940 c0 -5 5 -10 10 -10 6 0 10 5 10 10 0 6 -4 10 -10 10 -5 0
-10 -4 -10 -10z"/>
<path d="M1797 2933 c-22 -6 -47 -54 -47 -91 0 -66 88 -96 135 -46 67 73 10
163 -88 137z m43 -53 c0 -5 -6 -10 -14 -10 -8 0 -16 -5 -18 -12 -3 -7 -9 -8
-18 -3 -10 6 -9 11 5 22 22 15 45 17 45 3z"/>
<path d="M7525 2930 c3 -5 8 -10 11 -10 2 0 4 5 4 10 0 6 -5 10 -11 10 -5 0
-7 -4 -4 -10z"/>
<path d="M3991 2907 c-13 -21 -12 -21 5 -5 10 10 16 20 13 22 -3 3 -11 -5 -18
-17z"/>
<path d="M7211 2914 c0 -11 3 -14 6 -6 3 7 2 16 -1 19 -3 4 -6 -2 -5 -13z"/>
<path d="M463 2913 c-12 -2 -33 -18 -47 -34 -27 -31 -46 -38 -46 -15 0 8 -5
18 -11 22 -8 4 -9 -3 -4 -25 8 -38 3 -39 -29 -6 -53 53 -156 14 -156 -60 0
-27 -1 -28 -15 -9 -14 19 -14 18 -15 -3 0 -27 -25 -31 -38 -6 -10 17 -55 26
-84 17 -15 -5 -18 -18 -18 -90 0 -69 3 -86 16 -91 43 -16 114 49 114 106 0 19
3 22 9 12 11 -17 45 -6 35 11 -4 7 4 3 18 -10 50 -45 136 -19 149 44 3 16 10
28 17 27 7 -2 12 1 12 7 0 6 5 10 10 10 6 0 9 -6 8 -12 -2 -7 2 -12 8 -11 6 1
17 -9 24 -22 16 -30 41 -39 86 -30 39 7 74 52 74 96 0 46 -60 84 -117 72z
m-213 -113 c0 -5 -4 -10 -9 -10 -6 0 -13 5 -16 10 -3 6 1 10 9 10 9 0 16 -4
16 -10z"/>
<path d="M1509 2903 c-20 -5 -39 -45 -39 -83 0 -62 80 -92 134 -49 20 16 26
29 26 60 0 64 -47 92 -121 72z m61 -41 c0 -15 -52 -34 -63 -23 -7 7 -3 14 14
20 31 12 49 13 49 3z"/>
<path d="M6570 2900 c0 -5 5 -10 11 -10 5 0 7 5 4 10 -3 6 -8 10 -11 10 -2 0
-4 -4 -4 -10z"/>
<path d="M7065 2900 c-3 -5 -1 -10 4 -10 6 0 11 5 11 10 0 6 -2 10 -4 10 -3 0
-8 -4 -11 -10z"/>
<path d="M695 2887 c-16 -5 -33 -14 -36 -19 -4 -6 -18 -11 -33 -11 -14 -1 -26
-7 -26 -14 0 -7 6 -10 14 -7 11 4 17 -5 22 -30 16 -87 92 -116 148 -57 25 26
27 34 21 69 -9 57 -57 87 -110 69z m15 -72 c0 -8 -4 -15 -9 -15 -13 0 -22 16
-14 24 11 11 23 6 23 -9z"/>
<path d="M6470 2880 c0 -5 5 -10 10 -10 6 0 10 5 10 10 0 6 -4 10 -10 10 -5 0
-10 -4 -10 -10z"/>
<path d="M6520 2880 c0 -5 5 -10 10 -10 6 0 10 5 10 10 0 6 -4 10 -10 10 -5 0
-10 -4 -10 -10z"/>
<path d="M7160 2880 c0 -5 5 -10 10 -10 6 0 10 5 10 10 0 6 -4 10 -10 10 -5 0
-10 -4 -10 -10z"/>
<path d="M8134 2826 c-171 -85 -270 -118 -318 -105 -40 11 -96 54 -96 73 0 7
27 21 60 31 33 10 60 22 60 26 0 14 -111 -19 -153 -46 -104 -69 -383 -339
-545 -530 -53 -62 -93 -138 -69 -130 19 7 63 -38 91 -93 21 -41 24 -56 16 -77
-6 -15 -10 -42 -10 -61 l0 -34 49 0 c58 0 68 14 40 60 -11 18 -18 35 -15 37 3
3 -1 15 -9 27 -8 11 -15 27 -15 36 0 8 -16 26 -34 40 -45 32 -69 74 -61 103 9
32 28 70 43 86 11 12 16 10 28 -8 16 -22 34 -28 34 -11 0 28 111 202 160 251
60 60 151 113 216 125 55 10 58 13 33 40 -26 28 -18 43 37 69 33 15 37 15 61
-1 15 -9 41 -32 58 -51 17 -19 38 -35 46 -36 8 -2 20 -6 27 -10 6 -5 17 -5 22
-2 6 4 18 1 27 -7 15 -11 16 -11 10 5 -17 43 -17 50 -1 25 18 -27 43 -36 58
-20 4 4 11 7 14 7 12 0 85 48 112 72 14 13 30 23 37 23 7 0 13 5 13 11 0 5 5
7 10 4 9 -6 106 12 119 22 2 1 -2 9 -9 18 -17 21 -4 32 20 17 11 -7 26 -12 33
-12 8 0 27 -13 43 -29 15 -16 34 -26 41 -24 7 3 13 -1 13 -9 0 -16 90 -141 97
-134 4 4 -20 42 -111 176 -93 136 -99 137 -282 46z m276 -69 c0 -4 -13 8 -30
26 -16 19 -30 40 -30 48 0 13 59 -60 60 -74z m-522 -112 c-3 -3 -9 2 -12 12
-6 14 -5 15 5 6 7 -7 10 -15 7 -18z"/>
<path d="M1228 2869 c-33 -12 -61 -68 -52 -104 22 -90 164 -64 164 30 0 25 -8
44 -25 60 -26 27 -44 29 -87 14z m42 -49 c0 -10 -32 -30 -49 -30 -18 0 -12 28
7 33 30 8 42 7 42 -3z"/>
<path d="M6825 2860 c3 -5 8 -10 11 -10 2 0 4 5 4 10 0 6 -5 10 -11 10 -5 0
-7 -4 -4 -10z"/>
<path d="M6925 2860 c3 -5 8 -10 11 -10 2 0 4 5 4 10 0 6 -5 10 -11 10 -5 0
-7 -4 -4 -10z"/>
<path d="M7025 2860 c3 -5 8 -10 11 -10 2 0 4 5 4 10 0 6 -5 10 -11 10 -5 0
-7 -4 -4 -10z"/>
<path d="M6630 2850 c0 -5 5 -10 11 -10 5 0 7 5 4 10 -3 6 -8 10 -11 10 -2 0
-4 -4 -4 -10z"/>
<path d="M6675 2850 c3 -5 8 -10 11 -10 2 0 4 5 4 10 0 6 -5 10 -11 10 -5 0
-7 -4 -4 -10z"/>
<path d="M7120 2850 c0 -5 5 -10 11 -10 5 0 7 5 4 10 -3 6 -8 10 -11 10 -2 0
-4 -4 -4 -10z"/>
<path d="M7570 2850 c0 -5 5 -10 11 -10 5 0 7 5 4 10 -3 6 -8 10 -11 10 -2 0
-4 -4 -4 -10z"/>
<path d="M6570 2840 c0 -5 7 -10 16 -10 8 0 12 5 9 10 -3 6 -10 10 -16 10 -5
0 -9 -4 -9 -10z"/>
<path d="M958 2825 c-3 -3 -16 -8 -29 -10 -13 -3 -35 -13 -49 -23 -54 -41 -16
-152 52 -152 45 0 88 35 88 71 0 18 4 28 10 24 6 -3 0 10 -12 31 -12 20 -30
39 -41 42 -14 4 -16 7 -5 13 7 5 8 9 2 9 -6 0 -13 -2 -16 -5z m-28 -90 c-12
-15 -30 -12 -30 5 0 8 31 19 39 13 2 -1 -2 -9 -9 -18z"/>
<path d="M6730 2810 c0 -5 5 -10 11 -10 5 0 7 5 4 10 -3 6 -8 10 -11 10 -2 0
-4 -4 -4 -10z"/>
<path d="M5506 2781 c10 -10 21 -17 23 -15 6 6 -20 34 -32 34 -6 0 -2 -8 9
-19z"/>
<path d="M6550 2780 c0 -5 5 -10 11 -10 5 0 7 5 4 10 -3 6 -8 10 -11 10 -2 0
-4 -4 -4 -10z"/>
<path d="M6505 2770 c3 -5 8 -10 11 -10 2 0 4 5 4 10 0 6 -5 10 -11 10 -5 0
-7 -4 -4 -10z"/>
<path d="M6851 2764 c0 -11 3 -14 6 -6 3 7 2 16 -1 19 -3 4 -6 -2 -5 -13z"/>
<path d="M6945 2770 c3 -5 8 -10 11 -10 2 0 4 5 4 10 0 6 -5 10 -11 10 -5 0
-7 -4 -4 -10z"/>
<path d="M7040 2770 c0 -5 5 -10 10 -10 6 0 10 5 10 10 0 6 -4 10 -10 10 -5 0
-10 -4 -10 -10z"/>
<path d="M6700 2750 c0 -5 5 -10 11 -10 5 0 7 5 4 10 -3 6 -8 10 -11 10 -2 0
-4 -4 -4 -10z"/>
<path d="M2142 2712 c-27 -49 -28 -82 -2 -110 62 -66 165 -12 145 76 -8 40
-31 58 -80 66 -39 7 -41 6 -63 -32z m58 -42 c-11 -21 -40 -17 -40 6 0 8 10 14
25 14 22 0 24 -3 15 -20z"/>
<path d="M1896 2707 c-25 -33 -33 -80 -18 -103 12 -18 49 -34 80 -34 31 0 82
47 82 74 0 87 -95 128 -144 63z m64 -27 c0 -6 -5 -10 -11 -10 -5 0 -7 -4 -4
-10 3 -5 -3 -10 -14 -10 -21 0 -35 15 -27 28 7 11 56 13 56 2z"/>
<path d="M2391 2714 c-47 -59 -15 -134 57 -134 57 0 87 38 83 103 -4 57 -102
79 -140 31z m69 -20 c0 -14 -32 -35 -45 -30 -20 7 -19 24 3 29 26 7 42 8 42 1z"/>
<path d="M4130 2730 c0 -5 5 -10 10 -10 6 0 10 5 10 10 0 6 -4 10 -10 10 -5 0
-10 -4 -10 -10z"/>
<path d="M6615 2730 c3 -5 8 -10 11 -10 2 0 4 5 4 10 0 6 -5 10 -11 10 -5 0
-7 -4 -4 -10z"/>
<path d="M11206 2715 c-20 -14 -43 -25 -51 -25 -21 0 -62 -38 -97 -89 -25 -37
-28 -50 -23 -82 4 -22 10 -39 14 -39 13 0 41 -99 41 -144 0 -48 35 -161 85
-275 19 -44 35 -88 35 -98 1 -10 9 -34 20 -53 19 -35 19 -34 20 398 0 237 -2
432 -4 432 -2 0 -20 -11 -40 -25z"/>
<path d="M1649 2717 c-43 -33 -52 -104 -17 -137 47 -44 126 -16 143 52 17 67
-71 127 -126 85z m56 -37 c3 -6 -2 -13 -12 -17 -10 -4 -21 -10 -24 -15 -3 -5
-12 -2 -19 7 -11 13 -9 15 9 15 11 0 21 5 21 10 0 13 17 13 25 0z"/>
<path d="M4170 2721 c0 -5 5 -13 10 -16 6 -3 10 -2 10 4 0 5 -4 13 -10 16 -5
3 -10 2 -10 -4z"/>
<path d="M6760 2710 c0 -5 5 -10 11 -10 5 0 7 5 4 10 -3 6 -8 10 -11 10 -2 0
-4 -4 -4 -10z"/>
<path d="M8274 2709 c-3 -6 -14 -9 -24 -6 -22 6 -83 -29 -75 -42 3 -5 17 -4
33 4 15 7 42 19 60 26 17 8 32 17 32 21 0 12 -18 10 -26 -3z"/>
<path d="M1170 2700 c0 -5 5 -10 11 -10 5 0 7 5 4 10 -3 6 -8 10 -11 10 -2 0
-4 -4 -4 -10z"/>
<path d="M1366 2685 c-37 -34 -37 -95 0 -124 32 -25 57 -26 94 -4 47 27 54 90
15 128 -31 32 -74 32 -109 0z m54 -32 c-8 -3 -19 -13 -24 -21 -7 -12 -10 -12
-17 -1 -11 19 -1 29 29 28 16 0 21 -3 12 -6z"/>
<path d="M1095 2674 c-39 -20 -45 -31 -45 -81 0 -31 6 -49 21 -64 44 -44 148
-4 149 57 0 26 -20 84 -28 82 -4 -1 -20 4 -35 10 -34 14 -26 15 -62 -4z m27
-76 c-11 -11 -32 -3 -32 12 0 12 34 18 39 7 2 -5 -1 -13 -7 -19z"/>
<path d="M5545 2670 c3 -5 14 -10 23 -10 15 0 15 2 2 10 -20 13 -33 13 -25 0z"/>
<path d="M6580 2670 c0 -5 5 -10 10 -10 6 0 10 5 10 10 0 6 -4 10 -10 10 -5 0
-10 -4 -10 -10z"/>
<path d="M6870 2670 c0 -5 5 -10 10 -10 6 0 10 5 10 10 0 6 -4 10 -10 10 -5 0
-10 -4 -10 -10z"/>
<path d="M6915 2670 c3 -5 8 -10 11 -10 2 0 4 5 4 10 0 6 -5 10 -11 10 -5 0
-7 -4 -4 -10z"/>
<path d="M335 2661 c-27 -11 -44 -33 -54 -68 -11 -39 2 -69 40 -88 26 -14 36
-15 60 -4 38 15 59 45 59 85 0 56 -55 95 -105 75z"/>
<path d="M540 2648 c-43 -46 -37 -110 12 -137 36 -20 75 -6 104 37 18 27 21
38 13 65 -5 18 -17 38 -26 45 -27 20 -80 15 -103 -10z"/>
<path d="M4137 2659 c7 -7 15 -10 18 -7 3 3 -2 9 -12 12 -14 6 -15 5 -6 -5z"/>
<path d="M4220 2650 c0 -5 7 -10 16 -10 8 0 12 5 9 10 -3 6 -10 10 -16 10 -5
0 -9 -4 -9 -10z"/>
<path d="M6725 2650 c3 -5 11 -10 16 -10 6 0 7 5 4 10 -3 6 -11 10 -16 10 -6
0 -7 -4 -4 -10z"/>
<path d="M6930 2630 c0 -5 5 -10 11 -10 5 0 7 5 4 10 -3 6 -8 10 -11 10 -2 0
-4 -4 -4 -10z"/>
<path d="M6880 2620 c0 -5 5 -10 11 -10 5 0 7 5 4 10 -3 6 -8 10 -11 10 -2 0
-4 -4 -4 -10z"/>
<path d="M8248 2611 c-55 -18 -69 -46 -15 -29 62 21 77 28 77 38 0 12 -4 12
-62 -9z"/>
<path d="M4135 2610 c3 -5 10 -10 16 -10 5 0 9 5 9 10 0 6 -7 10 -16 10 -8 0
-12 -4 -9 -10z"/>
<path d="M6560 2610 c0 -5 5 -10 10 -10 6 0 10 5 10 10 0 6 -4 10 -10 10 -5 0
-10 -4 -10 -10z"/>
<path d="M759 2579 c-35 -37 -37 -76 -8 -113 40 -50 119 -27 138 40 12 43 -1
77 -36 93 -39 18 -63 13 -94 -20z m65 -30 c-3 -5 -10 -7 -15 -3 -5 3 -7 10 -3
15 3 5 10 7 15 3 5 -3 7 -10 3 -15z m-34 -9 c0 -5 -4 -10 -10 -10 -5 0 -10 5
-10 10 0 6 5 10 10 10 6 0 10 -4 10 -10z"/>
<path d="M4180 2600 c0 -5 5 -10 11 -10 5 0 7 5 4 10 -3 6 -8 10 -11 10 -2 0
-4 -4 -4 -10z"/>
<path d="M8039 2593 c-12 -15 -12 -16 4 -10 10 4 23 7 28 7 5 0 9 5 9 10 0 16
-26 12 -41 -7z"/>
<path d="M4270 2590 c0 -5 5 -10 11 -10 5 0 7 5 4 10 -3 6 -8 10 -11 10 -2 0
-4 -4 -4 -10z"/>
<path d="M6360 2579 c0 -42 12 -99 20 -94 4 2 3 28 -2 57 -11 59 -18 74 -18
37z"/>
<path d="M6700 2590 c0 -5 5 -10 11 -10 5 0 7 5 4 10 -3 6 -8 10 -11 10 -2 0
-4 -4 -4 -10z"/>
<path d="M105 2576 c-31 -14 -55 -51 -55 -87 0 -12 15 -36 34 -55 31 -31 36
-33 65 -23 80 28 96 135 24 168 -29 13 -31 13 -68 -3z m55 -40 c0 -3 -4 -8
-10 -11 -5 -3 -10 -1 -10 4 0 6 5 11 10 11 6 0 10 -2 10 -4z"/>
<path d="M6620 2571 c0 -5 5 -13 10 -16 6 -3 10 -2 10 4 0 5 -4 13 -10 16 -5
3 -10 2 -10 -4z"/>
<path d="M8000 2570 c0 -5 5 -10 10 -10 6 0 10 5 10 10 0 6 -4 10 -10 10 -5 0
-10 -4 -10 -10z"/>
<path d="M8313 2547 c-29 -12 -53 -28 -53 -34 0 -7 1 -13 3 -13 15 0 115 47
116 55 4 16 -11 14 -66 -8z"/>
<path d="M6760 2550 c0 -6 7 -10 15 -10 8 0 15 2 15 4 0 2 -7 6 -15 10 -8 3
-15 1 -15 -4z"/>
<path d="M7590 2544 c-80 -29 -150 -91 -216 -192 -20 -31 -50 -76 -65 -99 -23
-35 -25 -44 -13 -54 19 -16 42 -4 55 28 32 86 143 237 197 270 68 42 118 21
66 -26 -115 -102 -234 -358 -209 -446 8 -28 9 -26 16 25 10 77 17 91 43 84 17
-4 28 4 53 38 42 59 167 190 174 183 4 -3 12 1 19 10 7 8 19 15 26 15 17 0 18
-37 2 -43 -7 -3 -1 -6 14 -6 36 -1 43 14 19 41 -12 12 -21 27 -21 34 0 6 -7
17 -15 24 -8 7 -15 27 -15 45 0 32 1 33 33 25 17 -4 43 -10 55 -14 20 -7 23
-5 20 11 -9 46 -158 76 -238 47z m110 -107 c0 -7 -21 -29 -47 -48 -25 -19 -55
-40 -65 -48 -30 -23 -29 -8 3 28 31 36 87 81 101 81 4 0 8 -6 8 -13z"/>
<path d="M7886 2552 c-3 -6 -1 -14 5 -17 15 -10 25 3 12 16 -7 7 -13 7 -17 1z"/>
<path d="M4150 2540 c0 -5 5 -10 11 -10 5 0 7 5 4 10 -3 6 -8 10 -11 10 -2 0
-4 -4 -4 -10z"/>
<path d="M4230 2541 c0 -5 5 -13 10 -16 6 -3 10 -2 10 4 0 5 -4 13 -10 16 -5
3 -10 2 -10 -4z"/>
<path d="M2007 2512 c-61 -38 -58 -143 5 -156 47 -9 54 -8 87 20 78 65 -6 190
-92 136z m53 -40 c0 -13 -40 -43 -50 -37 -16 10 -11 33 8 38 29 8 42 7 42 -1z"/>
<path d="M2235 2503 c-56 -62 -38 -135 38 -151 48 -9 70 0 86 35 20 43 13 82
-18 114 -37 37 -72 37 -106 2z m47 -65 c-14 -14 -42 -3 -42 16 0 19 44 26 48
7 2 -7 -1 -18 -6 -23z"/>
<path d="M7921 2521 c-15 -9 -6 -71 10 -71 12 0 12 27 -1 35 -16 10 -12 23 8
27 10 2 13 6 7 10 -6 4 -17 3 -24 -1z"/>
<path d="M1330 2511 c0 -6 -12 -8 -27 -5 -16 2 -41 1 -58 -4 -25 -7 -32 -16
-39 -49 -17 -79 6 -110 92 -123 34 -6 42 -4 38 7 -3 7 -2 13 3 13 4 0 16 15
26 34 17 32 17 36 2 69 -9 19 -17 40 -17 45 0 6 -4 14 -10 17 -5 3 -10 2 -10
-4z m-67 -85 c4 -10 1 -13 -9 -9 -15 6 -19 23 -5 23 5 0 11 -7 14 -14z"/>
<path d="M1747 2495 c-33 -34 -41 -68 -22 -104 17 -35 44 -45 90 -37 67 13 90
107 36 145 -39 28 -73 26 -104 -4z m63 -34 c0 -7 -17 -14 -50 -21 -2 -1 -6 3
-8 8 -1 5 8 13 20 19 24 11 38 8 38 -6z"/>
<path d="M2484 2508 c-26 -12 -44 -48 -44 -87 0 -37 37 -71 79 -71 42 0 90 45
86 80 -1 14 -3 31 -4 38 -4 41 -69 64 -117 40z m40 -59 c-21 -23 -44 -25 -44
-4 0 16 39 36 53 28 5 -3 1 -14 -9 -24z"/>
<path d="M5343 2510 c-13 -5 -23 -12 -23 -15 0 -9 16 -5 36 10 22 16 19 18
-13 5z"/>
<path d="M1502 2503 c-17 -7 -42 -57 -42 -85 1 -69 99 -99 146 -45 48 56 16
138 -54 136 -20 0 -43 -3 -50 -6z m58 -43 c0 -5 -7 -10 -15 -10 -9 0 -18 -7
-22 -16 -5 -15 -7 -14 -16 1 -7 12 -5 20 4 26 19 12 49 11 49 -1z"/>
<path d="M4155 2490 c3 -5 8 -10 11 -10 2 0 4 5 4 10 0 6 -5 10 -11 10 -5 0
-7 -4 -4 -10z"/>
<path d="M6002 2470 c2 -28 8 -36 26 -38 28 -4 28 6 -3 43 l-25 30 2 -35z"/>
<path d="M4195 2480 c3 -5 11 -10 16 -10 6 0 7 5 4 10 -3 6 -11 10 -16 10 -6
0 -7 -4 -4 -10z"/>
<path d="M4280 2486 c0 -2 7 -9 15 -16 13 -11 14 -10 9 4 -5 14 -24 23 -24 12z"/>
<path d="M8363 2470 c-50 -22 -56 -34 -13 -25 32 7 90 33 90 41 0 10 -38 2
-77 -16z"/>
<path d="M970 2467 c-49 -25 -65 -97 -30 -135 40 -42 118 -22 138 36 13 38 -8
89 -43 102 -33 12 -35 12 -65 -3z"/>
<path d="M4375 2470 c3 -5 8 -10 11 -10 2 0 4 5 4 10 0 6 -5 10 -11 10 -5 0
-7 -4 -4 -10z"/>
<path d="M5249 2452 c-70 -53 -162 -142 -147 -142 8 0 35 7 61 16 41 14 45 18
37 34 -8 16 -4 24 23 44 19 15 41 26 50 26 11 0 17 8 17 25 0 14 -1 25 -2 25
-2 0 -19 -13 -39 -28z"/>
<path d="M6887 2469 c7 -7 15 -10 18 -7 3 3 -2 9 -12 12 -14 6 -15 5 -6 -5z"/>
<path d="M3930 2450 c0 -5 5 -10 10 -10 6 0 10 5 10 10 0 6 -4 10 -10 10 -5 0
-10 -4 -10 -10z"/>
<path d="M6800 2450 c0 -5 5 -10 10 -10 6 0 10 5 10 10 0 6 -4 10 -10 10 -5 0
-10 -4 -10 -10z"/>
<path d="M4160 2432 c0 -12 19 -26 26 -19 2 2 -2 10 -11 17 -9 8 -15 8 -15 2z"/>
<path d="M4215 2430 c-3 -5 -1 -10 4 -10 6 0 11 5 11 10 0 6 -2 10 -4 10 -3 0
-8 -4 -11 -10z"/>
<path d="M4250 2432 c0 -12 19 -26 26 -19 2 2 -2 10 -11 17 -9 8 -15 8 -15 2z"/>
<path d="M5670 2435 c-8 -2 -49 -9 -90 -15 -138 -22 -180 -31 -175 -39 7 -12
59 -10 67 2 4 7 11 7 21 -1 7 -7 17 -8 21 -4 4 4 20 8 34 9 15 2 59 5 98 9 87
7 123 -7 189 -74 25 -25 47 -43 50 -40 9 9 -47 108 -68 120 -12 6 -25 15 -28
21 -7 10 -91 19 -119 12z"/>
<path d="M6720 2430 c0 -5 5 -10 11 -10 5 0 7 5 4 10 -3 6 -8 10 -11 10 -2 0
-4 -4 -4 -10z"/>
<path d="M8458 2419 c-37 -19 -45 -29 -32 -42 10 -9 94 35 94 50 0 18 -18 16
-62 -8z"/>
<path d="M4335 2420 c3 -5 8 -10 11 -10 2 0 4 5 4 10 0 6 -5 10 -11 10 -5 0
-7 -4 -4 -10z"/>
<path d="M5039 2398 c-98 -70 -226 -225 -243 -294 -6 -21 -9 -24 -21 -14 -10
8 -15 9 -15 2 0 -6 5 -14 12 -18 11 -7 39 21 148 147 30 35 86 96 124 136 72
76 70 95 -5 41z"/>
<path d="M6915 2420 c3 -5 8 -10 11 -10 2 0 4 5 4 10 0 6 -5 10 -11 10 -5 0
-7 -4 -4 -10z"/>
<path d="M1 2350 c0 -70 1 -73 14 -50 19 33 19 81 0 106 -13 17 -14 12 -14
-56z"/>
<path d="M4430 2416 c0 -2 7 -7 16 -10 8 -3 12 -2 9 4 -6 10 -25 14 -25 6z"/>
<path d="M6038 2408 c9 -9 15 -9 24 0 9 9 7 12 -12 12 -19 0 -21 -3 -12 -12z"/>
<path d="M363 2376 c-23 -6 -45 -14 -49 -19 -4 -4 -22 -7 -41 -7 -18 0 -33 -4
-33 -9 0 -5 -14 -14 -30 -21 -33 -14 -62 -38 -152 -127 l-58 -57 0 -128 c0
-107 2 -128 15 -128 9 0 15 9 15 24 0 14 5 37 10 52 6 15 7 31 2 38 -12 16
-15 86 -3 86 5 0 13 9 16 21 17 52 97 141 152 169 15 8 37 22 48 31 11 10 31
20 45 22 14 2 36 9 50 15 15 6 77 9 150 7 97 -2 137 -7 178 -23 51 -20 52 -20
52 -1 0 13 -7 19 -24 19 -14 0 -27 4 -31 9 -21 35 -220 52 -312 27z"/>
<path d="M6476 2374 c-12 -32 -6 -81 13 -98 18 -17 19 -16 15 31 -2 26 -3 56
-4 66 0 21 -16 22 -24 1z"/>
<path d="M1911 2364 c0 -11 3 -14 6 -6 3 7 2 16 -1 19 -3 4 -6 -2 -5 -13z"/>
<path d="M4216 2366 c3 -9 11 -16 16 -16 13 0 5 23 -10 28 -7 2 -10 -2 -6 -12z"/>
<path d="M4305 2360 c3 -5 11 -10 16 -10 6 0 7 5 4 10 -3 6 -11 10 -16 10 -6
0 -7 -4 -4 -10z"/>
<path d="M6290 2362 c0 -4 9 -13 20 -20 19 -12 20 -11 8 8 -13 20 -28 27 -28
12z"/>
<path d="M8268 2336 c-21 -15 -24 -36 -5 -36 20 1 50 28 42 39 -8 14 -16 13
-37 -3z"/>
<path d="M3860 2324 c0 -8 5 -12 10 -9 6 4 8 11 5 16 -9 14 -15 11 -15 -7z"/>
<path d="M6765 2330 c3 -5 8 -10 11 -10 2 0 4 5 4 10 0 6 -5 10 -11 10 -5 0
-7 -4 -4 -10z"/>
<path d="M6960 2330 c0 -5 5 -10 10 -10 6 0 10 5 10 10 0 6 -4 10 -10 10 -5 0
-10 -4 -10 -10z"/>
<path d="M8635 2331 c-66 -17 -235 -100 -235 -116 0 -13 22 -32 58 -53 19 -11
22 -10 22 7 0 10 7 22 16 25 11 4 14 14 9 34 -5 24 -2 30 22 41 61 28 116 42
172 44 40 1 56 5 50 13 -10 12 -73 15 -114 5z"/>
<path d="M6545 2320 c3 -5 8 -10 11 -10 2 0 4 5 4 10 0 6 -5 10 -11 10 -5 0
-7 -4 -4 -10z"/>
<path d="M8010 2320 c0 -5 5 -10 10 -10 6 0 10 5 10 10 0 6 -4 10 -10 10 -5 0
-10 -4 -10 -10z"/>
<path d="M746 2313 c-12 -12 -6 -35 8 -30 7 3 21 -4 30 -15 10 -11 20 -17 23
-14 4 3 -7 20 -24 36 -16 16 -33 27 -37 23z"/>
<path d="M4270 2310 c0 -5 5 -10 11 -10 5 0 7 5 4 10 -3 6 -8 10 -11 10 -2 0
-4 -4 -4 -10z"/>
<path d="M4365 2310 c3 -5 8 -10 11 -10 2 0 4 5 4 10 0 6 -5 10 -11 10 -5 0
-7 -4 -4 -10z"/>
<path d="M4460 2310 c0 -5 5 -10 11 -10 5 0 7 5 4 10 -3 6 -8 10 -11 10 -2 0
-4 -4 -4 -10z"/>
<path d="M6000 2310 c0 -5 5 -10 11 -10 5 0 7 5 4 10 -3 6 -8 10 -11 10 -2 0
-4 -4 -4 -10z"/>
<path d="M6610 2309 c0 -5 5 -7 10 -4 6 3 10 8 10 11 0 2 -4 4 -10 4 -5 0 -10
-5 -10 -11z"/>
<path d="M1340 2295 c0 -8 -9 -29 -20 -47 -11 -18 -20 -41 -20 -50 0 -23 48
-78 68 -78 10 0 25 -7 36 -15 17 -13 17 -16 -15 -60 -60 -83 -34 -159 56 -164
31 -1 45 2 45 11 0 10 2 10 8 1 14 -22 50 -3 56 30 17 79 18 97 7 97 -6 0 -11
-17 -12 -37 0 -21 -2 -33 -4 -28 -1 6 -8 28 -15 51 -11 37 -27 53 -72 70 -10
3 -18 13 -18 20 0 8 -6 14 -12 14 -7 0 -1 10 14 21 49 36 46 139 -4 158 -49
17 -98 20 -98 6z m35 -73 c0 -18 -20 -15 -23 4 -3 10 1 15 10 12 7 -3 13 -10
13 -16z m75 -213 c0 -13 -29 -31 -40 -24 -19 12 -10 30 15 30 14 0 25 -3 25
-6z"/>
<path d="M1598 2285 c-35 -19 -48 -44 -48 -89 0 -74 96 -100 149 -40 58 68
-23 172 -101 129z m47 -45 c3 -5 -1 -10 -9 -10 -9 0 -16 5 -16 10 0 6 4 10 9
10 6 0 13 -4 16 -10z m-35 -15 c0 -8 -4 -15 -10 -15 -5 0 -10 7 -10 15 0 8 5
15 10 15 6 0 10 -7 10 -15z"/>
<path d="M1838 2285 c-28 -16 -58 -62 -58 -89 0 -30 53 -74 97 -80 40 -6 43
-4 59 26 24 46 23 103 -1 127 -28 27 -65 33 -97 16z m42 -43 c0 -5 -8 -16 -19
-26 -16 -15 -20 -15 -31 -1 -10 12 -8 16 11 24 31 12 39 13 39 3z"/>
<path d="M2300 2283 c-24 -17 -50 -64 -50 -92 0 -35 42 -73 82 -74 29 -1 35
-4 26 -14 -8 -10 -6 -13 9 -13 12 0 19 8 20 21 1 12 10 27 19 33 24 18 25 97
1 120 -27 27 -81 37 -107 19z m30 -73 c-21 -14 -30 -12 -30 4 0 18 22 27 35
14 6 -6 5 -12 -5 -18z"/>
<path d="M3916 2283 c-6 -14 -5 -15 5 -6 7 7 10 15 7 18 -3 3 -9 -2 -12 -12z"/>
<path d="M6542 2275 c3 -13 0 -26 -6 -28 -7 -3 -4 -12 8 -26 21 -23 46 -30 26
-6 -6 8 -12 30 -12 50 0 19 -5 35 -10 35 -6 0 -8 -11 -6 -25z"/>
<path d="M1110 2283 c-22 -9 -50 -43 -57 -71 -9 -39 21 -92 54 -94 79 -4 113
23 113 90 0 66 -48 98 -110 75z m25 -59 c-7 -8 -18 -14 -24 -14 -6 0 -11 6
-11 14 0 8 10 14 24 14 21 0 23 -3 11 -14z"/>
<path d="M2065 2282 c-20 -14 -45 -62 -45 -85 0 -14 9 -36 21 -51 16 -21 29
-26 64 -26 35 0 48 5 64 26 46 58 8 144 -62 144 -18 0 -37 -4 -42 -8z m45 -44
c0 -23 -18 -41 -34 -35 -21 8 -20 34 2 40 29 8 32 7 32 -5z"/>
<path d="M2540 2277 c-14 -7 -34 -30 -44 -51 -18 -37 -18 -40 -1 -71 19 -37
59 -51 102 -34 20 7 29 6 36 -3 6 -10 7 -8 3 4 -3 9 2 31 11 49 14 29 14 34
-1 65 -9 19 -27 39 -42 44 -32 12 -34 12 -64 -3z m40 -42 c0 -8 -4 -15 -10
-15 -5 0 -10 7 -10 15 0 8 5 15 10 15 6 0 10 -7 10 -15z m-26 -11 c3 -9 3 -20
0 -25 -9 -15 -34 10 -27 27 7 19 19 18 27 -2z"/>
<path d="M6365 2270 c3 -5 8 -10 11 -10 2 0 4 5 4 10 0 6 -5 10 -11 10 -5 0
-7 -4 -4 -10z"/>
<path d="M6607 2273 c-2 -5 -5 -29 -5 -55 0 -37 5 -51 25 -70 l26 -23 -18 34
c-12 23 -16 48 -12 78 4 38 -4 57 -16 36z"/>
<path d="M6887 2259 c7 -7 15 -10 18 -7 3 3 -2 9 -12 12 -14 6 -15 5 -6 -5z"/>
<path d="M7813 2260 c-26 -11 -31 -30 -8 -30 8 0 15 -3 15 -6 0 -12 -50 -53
-120 -98 -39 -25 -79 -60 -90 -78 -30 -49 -25 -158 7 -158 10 0 14 6 10 18 -9
32 -9 37 -8 63 1 37 23 42 65 13 20 -14 36 -23 37 -22 0 2 2 10 4 18 7 35 99
170 155 228 l62 62 -54 -1 c-29 0 -63 -4 -75 -9z"/>
<path d="M4250 2251 c0 -5 5 -13 10 -16 6 -3 10 -2 10 4 0 5 -4 13 -10 16 -5
3 -10 2 -10 -4z"/>
<path d="M4330 2256 c0 -2 7 -7 16 -10 8 -3 12 -2 9 4 -6 10 -25 14 -25 6z"/>
<path d="M5208 2250 c-49 -9 -92 -31 -140 -73 -44 -38 -33 -39 31 -4 90 49 91
27 4 -84 -46 -59 -83 -141 -83 -184 0 -36 27 -32 35 5 8 37 15 37 45 0 31 -36
53 -40 45 -7 -7 28 42 101 107 157 28 25 37 40 33 53 -12 30 -32 19 -111 -68
-43 -46 -80 -82 -82 -80 -10 10 51 95 104 145 50 48 57 59 56 88 l-3 34 51 -5
c27 -3 50 -3 50 -1 0 6 -71 34 -84 33 -6 -1 -32 -5 -58 -9z"/>
<path d="M3853 2210 c0 -25 2 -35 4 -22 2 12 2 32 0 45 -2 12 -4 2 -4 -23z"/>
<path d="M6810 2241 c0 -5 5 -13 10 -16 6 -3 10 -2 10 4 0 5 -4 13 -10 16 -5
3 -10 2 -10 -4z"/>
<path d="M830 2231 c0 -5 5 -13 10 -16 6 -3 10 -2 10 4 0 5 -4 13 -10 16 -5 3
-10 2 -10 -4z"/>
<path d="M8085 2232 c-11 -2 -31 -12 -45 -21 -14 -9 -38 -23 -54 -31 -44 -22
-105 -99 -162 -202 l-51 -93 50 -3 c40 -3 53 1 69 17 10 12 29 21 42 21 27 0
52 25 61 62 4 15 13 29 20 32 8 3 11 13 8 24 -6 25 25 62 52 62 38 0 100 -42
134 -91 36 -53 54 -60 71 -29 9 18 3 28 -45 78 -62 64 -74 88 -53 108 11 12
22 11 71 -7 32 -12 60 -19 63 -16 13 12 -49 65 -88 75 -54 14 -117 20 -143 14z"/>
<path d="M6670 2220 c0 -5 5 -10 10 -10 6 0 10 5 10 10 0 6 -4 10 -10 10 -5 0
-10 -4 -10 -10z"/>
<path d="M6870 2211 c0 -5 5 -13 10 -16 6 -3 10 -2 10 4 0 5 -4 13 -10 16 -5
3 -10 2 -10 -4z"/>
<path d="M4265 2200 c3 -5 8 -10 11 -10 2 0 4 5 4 10 0 6 -5 10 -11 10 -5 0
-7 -4 -4 -10z"/>
<path d="M4310 2200 c0 -5 5 -10 11 -10 5 0 7 5 4 10 -3 6 -8 10 -11 10 -2 0
-4 -4 -4 -10z"/>
<path d="M6670 2186 c0 -8 6 -17 13 -19 7 -3 5 -6 -5 -6 -15 -1 -16 -4 -4 -33
8 -18 19 -33 25 -34 8 -2 8 -1 1 3 -8 3 -7 9 1 19 9 11 9 14 0 14 -7 0 -10 4
-6 10 8 12 -5 60 -16 60 -5 0 -9 -6 -9 -14z"/>
<path d="M1491 2169 c0 -15 -8 -32 -16 -39 -8 -7 -15 -17 -15 -23 0 -6 9 -2
21 9 14 15 19 30 16 50 -4 28 -4 28 -6 3z"/>
<path d="M6815 2180 c3 -5 11 -10 16 -10 6 0 7 5 4 10 -3 6 -11 10 -16 10 -6
0 -7 -4 -4 -10z"/>
<path d="M5920 2171 c0 -5 7 -11 15 -15 9 -3 15 0 15 9 0 8 -7 15 -15 15 -8 0
-15 -4 -15 -9z"/>
<path d="M6738 2139 c-2 -22 0 -43 5 -46 5 -3 6 -11 3 -19 -3 -8 -1 -14 4 -14
6 0 10 -7 10 -15 0 -8 4 -15 8 -15 5 0 20 -9 33 -21 13 -11 29 -24 34 -27 6
-4 15 -16 21 -27 6 -11 29 -32 50 -47 36 -26 46 -27 145 -28 l107 0 -10 47
c-12 53 -30 77 -45 62 -14 -14 -65 -8 -70 8 -3 7 3 10 15 6 17 -4 19 1 20 49
0 62 -12 94 -23 59 -3 -12 -4 -34 0 -50 4 -17 2 -32 -5 -36 -12 -7 -72 39 -89
70 -22 38 -67 27 -84 -19 -7 -18 -9 -19 -25 -2 -15 15 -15 18 -2 26 13 8 12
10 -4 10 -12 0 -16 5 -12 15 3 8 1 15 -3 15 -15 0 -19 -25 -11 -68 4 -23 5
-42 1 -42 -3 -1 5 -7 19 -15 14 -8 19 -14 12 -15 -22 0 -59 49 -68 88 -10 51
-11 55 -12 75 -3 33 -20 17 -24 -24z"/>
<path d="M4370 2150 c0 -5 5 -10 10 -10 6 0 10 5 10 10 0 6 -4 10 -10 10 -5 0
-10 -4 -10 -10z"/>
<path d="M917 2114 c4 -10 14 -34 24 -53 9 -19 15 -40 12 -47 -2 -6 3 -14 11
-17 18 -7 20 5 7 31 -5 9 -17 34 -27 55 -19 40 -39 62 -27 31z"/>
<path d="M1952 2110 c0 -14 2 -19 5 -12 2 6 2 18 0 25 -3 6 -5 1 -5 -13z"/>
<path d="M4540 2116 c0 -2 7 -7 16 -10 8 -3 12 -2 9 4 -6 10 -25 14 -25 6z"/>
<path d="M1525 2100 c-3 -6 1 -7 9 -4 18 7 21 14 7 14 -6 0 -13 -4 -16 -10z"/>
<path d="M4445 2100 c3 -5 8 -10 11 -10 2 0 4 5 4 10 0 6 -5 10 -11 10 -5 0
-7 -4 -4 -10z"/>
<path d="M4864 2042 c-62 -83 -104 -146 -104 -155 0 -17 29 -5 35 14 5 14 13
19 25 16 13 -3 19 3 24 24 3 16 11 29 18 29 12 0 65 127 56 135 -2 2 -26 -26
-54 -63z"/>
<path d="M6015 2100 c11 -5 16 -9 10 -9 -21 -2 21 -21 47 -21 51 0 39 -19 -14
-22 -46 -3 -53 -6 -56 -25 -4 -29 28 -38 74 -21 30 10 42 10 80 -4 24 -8 46
-13 48 -9 2 3 -13 19 -35 35 -21 17 -39 33 -39 38 0 13 -61 40 -76 34 -9 -3
-12 -1 -9 4 4 6 -6 10 -22 9 -25 0 -26 -1 -8 -9z"/>
<path d="M4305 2090 c3 -5 8 -10 11 -10 2 0 4 5 4 10 0 6 -5 10 -11 10 -5 0
-7 -4 -4 -10z"/>
<path d="M4345 2090 c3 -5 11 -10 16 -10 6 0 7 5 4 10 -3 6 -11 10 -16 10 -6
0 -7 -4 -4 -10z"/>
<path d="M2345 2070 c-3 -5 -3 -10 0 -10 3 0 -11 -15 -31 -34 -30 -28 -38 -42
-38 -70 0 -36 -10 -47 -19 -23 -4 9 -6 9 -6 -1 -1 -19 18 -52 30 -52 6 0 9 7
5 15 -3 8 -1 15 3 15 5 0 11 -7 15 -15 4 -11 22 -15 69 -15 59 0 64 2 80 30
10 17 13 30 8 30 -6 0 -11 11 -11 25 0 38 -20 73 -46 79 -28 7 -31 23 -6 29 9
3 3 5 -15 6 -17 0 -35 -3 -38 -9z m15 -90 c0 -13 -7 -20 -20 -20 -19 0 -27 20
-13 33 13 14 33 6 33 -13z"/>
<path d="M4575 2070 c-3 -5 1 -10 10 -10 9 0 13 5 10 10 -3 6 -8 10 -10 10 -2
0 -7 -4 -10 -10z"/>
<path d="M6480 2072 c0 -13 49 -37 57 -28 4 4 -3 9 -15 13 -12 3 -22 9 -22 14
0 5 -4 9 -10 9 -5 0 -10 -4 -10 -8z"/>
<path d="M1157 2040 c-29 -25 -32 -34 -32 -83 0 -30 3 -53 8 -50 4 2 12 1 18
-3 8 -4 7 -9 -2 -14 -6 -5 20 -8 60 -9 62 0 72 2 67 15 -3 9 1 28 10 44 30 50
-7 122 -65 126 -24 2 -42 -6 -64 -26z m67 -31 c-6 -11 -24 -2 -24 11 0 5 7 7
15 4 8 -4 12 -10 9 -15z"/>
<path d="M1663 2063 c-33 -6 -83 -71 -83 -108 0 -23 8 -35 33 -52 46 -31 82
-29 118 6 32 32 39 84 17 113 -21 25 -61 45 -85 41z m6 -74 c-19 -12 -39 -11
-39 1 0 15 44 30 49 18 2 -6 -3 -14 -10 -19z"/>
<path d="M5300 2059 c0 -5 5 -7 10 -4 6 3 10 8 10 11 0 2 -4 4 -10 4 -5 0 -10
-5 -10 -11z"/>
<path d="M6580 2055 c0 -9 -9 -19 -20 -22 -25 -7 -25 -17 0 -34 22 -16 18 -59
-6 -59 -16 0 -19 -16 -5 -24 5 -4 11 0 14 6 3 8 10 2 17 -13 12 -27 13 -27
136 -28 68 -1 124 2 124 6 -1 7 -80 62 -104 72 -5 2 -21 14 -35 27 -23 20 -72
55 -108 78 -9 4 -13 1 -13 -9z"/>
<path d="M1845 2029 c-23 -28 -26 -39 -23 -90 2 -33 6 -59 11 -59 4 0 7 5 7
10 0 7 6 7 19 0 28 -15 148 -13 155 3 5 10 7 10 12 0 3 -7 12 -13 20 -13 12 0
11 5 -3 26 l-17 26 -16 -22 c-15 -20 -17 -21 -31 -4 -13 16 -12 17 5 11 14 -6
17 -4 12 8 -4 11 -2 14 7 9 9 -5 9 -4 0 7 -7 7 -13 23 -13 35 0 36 -11 54 -41
69 -44 23 -74 19 -104 -16z m65 -27 c0 -12 -23 -32 -37 -32 -19 0 -16 28 5 33
28 8 32 7 32 -1z"/>
<path d="M2087 2036 c-34 -29 -51 -90 -34 -117 29 -46 115 -53 152 -13 16 18
25 22 25 12 0 -7 -5 -19 -11 -25 -9 -9 -7 -12 7 -11 16 2 19 8 16 30 -2 15 -8
28 -13 28 -5 0 -8 11 -7 24 4 49 -40 96 -90 96 -9 0 -30 -11 -45 -24z m53 -35
c0 -5 -7 -17 -16 -26 -13 -12 -20 -13 -28 -5 -8 8 -6 15 8 26 23 16 36 18 36
5z"/>
<path d="M4420 2050 c0 -5 5 -10 11 -10 5 0 7 5 4 10 -3 6 -8 10 -11 10 -2 0
-4 -4 -4 -10z"/>
<path d="M2445 2040 c3 -5 8 -10 11 -10 2 0 4 5 4 10 0 6 -5 10 -11 10 -5 0
-7 -4 -4 -10z"/>
<path d="M2544 2028 c-50 -54 -56 -93 -20 -127 20 -19 33 -22 87 -20 35 2 70
8 78 13 10 8 15 8 18 -1 9 -25 23 -12 22 20 0 27 -2 29 -9 12 -8 -18 -9 -19
-9 -1 -1 11 -6 16 -15 13 -10 -4 -15 5 -20 31 -11 69 -91 105 -132 60z m56
-31 c0 -8 -9 -22 -20 -32 -18 -16 -20 -17 -26 -1 -4 11 1 22 12 31 24 18 34
19 34 2z"/>
<path d="M5647 2016 c-32 -14 -68 -33 -80 -42 -49 -40 -87 -78 -87 -86 0 -15
58 -8 64 7 8 22 100 61 164 70 41 5 52 11 52 25 0 10 3 25 6 34 9 24 -50 20
-119 -8z"/>
<path d="M5810 2030 c0 -9 51 -32 57 -26 3 3 2 9 -1 14 -7 12 -56 22 -56 12z"/>
<path d="M8680 2028 c-25 -5 -90 -21 -145 -35 -55 -14 -123 -25 -150 -24 -50
2 -51 1 -63 -34 -8 -19 -10 -39 -7 -45 3 -5 31 -10 61 -10 47 0 54 2 54 20 0
16 7 20 30 20 20 0 30 -5 30 -15 0 -26 44 -17 127 24 127 64 148 71 210 71
l58 1 -24 19 c-26 22 -100 25 -181 8z"/>
<path d="M4956 2015 c-9 -26 -7 -32 5 -12 6 10 9 21 6 23 -2 3 -7 -2 -11 -11z"/>
<path d="M4398 1993 c7 -3 16 -2 19 1 4 3 -2 6 -13 5 -11 0 -14 -3 -6 -6z"/>
<path d="M5346 1975 c-21 -7 -46 -21 -54 -29 -14 -14 -12 -15 20 -10 43 7 57
-9 32 -37 -17 -18 -16 -19 13 -19 27 0 33 6 50 45 10 25 21 45 26 45 4 0 7 5
7 10 0 14 -48 12 -94 -5z"/>
<path d="M7391 1973 c-9 -15 -12 -15 -20 -4 -6 9 -11 10 -15 2 -9 -14 1 -31
20 -31 8 0 14 5 14 10 0 6 7 10 15 10 8 0 15 7 15 15 0 20 -17 19 -29 -2z"/>
<path d="M2235 1971 c-3 -5 -1 -12 5 -16 5 -3 10 1 10 9 0 18 -6 21 -15 7z"/>
<path d="M4470 1960 c0 -6 7 -10 15 -10 8 0 15 2 15 4 0 2 -7 6 -15 10 -8 3
-15 1 -15 -4z"/>
<path d="M8052 1933 c-11 -22 -26 -37 -36 -37 -9 1 -13 -2 -10 -7 7 -12 124
-12 124 0 0 4 -13 25 -29 45 l-29 36 -20 -37z"/>
<path d="M1025 1950 c-3 -5 -1 -10 4 -10 6 0 11 5 11 10 0 6 -2 10 -4 10 -3 0
-8 -4 -11 -10z"/>
<path d="M8985 1940 c3 -5 14 -10 23 -10 15 0 15 2 2 10 -20 13 -33 13 -25 0z"/>
<path d="M4380 1936 c0 -2 7 -6 15 -10 8 -3 15 -1 15 4 0 6 -7 10 -15 10 -8 0
-15 -2 -15 -4z"/>
<path d="M9020 1910 c-7 -4 -9 -13 -6 -19 10 -15 69 -14 64 1 -6 16 -42 28
-58 18z"/>
<path d="M4450 1906 c0 -2 9 -6 20 -9 11 -3 20 -1 20 4 0 5 -9 9 -20 9 -11 0
-20 -2 -20 -4z"/>
<path d="M6280 1896 c0 -9 7 -16 16 -16 9 0 14 5 12 12 -6 18 -28 21 -28 4z"/>
<path d="M2490 1890 c0 -6 7 -10 15 -10 8 0 15 2 15 4 0 2 -7 6 -15 10 -8 3
-15 1 -15 -4z"/>
</g>
</svg>
